<?xml version="1.0" standalone="no"?>
<!DOCTYPE svg PUBLIC "-//W3C//DTD SVG 20010904//EN"
 "http://www.w3.org/TR/2001/REC-SVG-20010904/DTD/svg10.dtd">
<svg version="1.0" xmlns="http://www.w3.org/2000/svg"
 width="643.000000pt" height="643.000000pt" viewBox="0 0 643.000000 643.000000"
 preserveAspectRatio="xMidYMid meet">

<g transform="translate(0.000000,643.000000) scale(0.100000,-0.100000)"
fill="#000000" stroke="none">
<path d="M2395 4889 c38 -17 77 -36 85 -43 21 -17 67 -36 89 -36 10 0 29 -12
44 -27 14 -16 46 -46 71 -68 25 -21 46 -48 46 -58 0 -10 -13 -32 -30 -47 -16
-15 -30 -32 -30 -37 0 -10 222 -9 239 1 6 4 14 21 19 38 8 31 32 52 99 83 17
8 34 19 37 24 9 14 126 71 145 71 9 0 29 7 45 15 15 8 36 15 45 16 9 0 11 3 4
5 -6 3 -38 -2 -71 -10 -33 -9 -71 -16 -84 -16 -13 0 -46 -11 -74 -24 -27 -13
-69 -29 -94 -35 -34 -10 -59 -27 -102 -73 l-57 -60 -6 36 c-9 47 -57 119 -92
136 -16 8 -40 24 -54 36 -15 11 -48 24 -73 27 -25 4 -63 15 -84 26 -35 18
-151 51 -175 51 -7 -1 19 -14 58 -31z"/>
<path d="M2517 4420 c-20 -4 -47 -16 -60 -28 -18 -16 -32 -20 -72 -17 l-50 4
40 -10 c88 -23 109 -22 120 2 15 34 72 44 107 19 31 -23 38 -24 38 -10 0 12
-60 51 -75 49 -5 -1 -27 -5 -48 -9z"/>
<path d="M3640 4392 c34 -17 60 -37 68 -54 12 -26 31 -35 57 -28 6 2 37 8 70
15 l60 13 -55 1 c-30 0 -61 -3 -69 -8 -11 -7 -19 -1 -30 22 -18 37 -47 52
-111 60 l-45 6 55 -27z"/>
<path d="M3197 4222 c-26 -37 -88 -119 -137 -182 -99 -126 -134 -185 -144
-243 -11 -58 -24 -80 -61 -105 -33 -23 -46 -45 -96 -165 -13 -32 -43 -80 -66
-108 -29 -34 -43 -60 -43 -80 0 -16 -3 -29 -7 -29 -3 0 -35 16 -70 36 l-64 36
-52 -41 c-77 -59 -93 -79 -126 -158 -31 -75 -74 -145 -109 -176 -20 -19 -21
-18 -46 22 -14 22 -62 80 -107 128 -44 48 -97 112 -116 141 -20 28 -39 52 -44
52 -4 0 -18 -13 -31 -29 -63 -78 -261 -301 -301 -339 -32 -31 -47 -40 -52 -31
-5 6 -11 53 -14 103 -6 83 -10 96 -44 148 -20 32 -46 62 -57 68 -30 16 -48 59
-55 137 -8 74 -19 98 -124 242 -30 43 -40 66 -45 112 -12 116 -78 257 -129
275 -22 7 -62 -18 -78 -48 -6 -12 -22 -69 -34 -127 -23 -115 -48 -165 -125
-256 -31 -36 -52 -75 -68 -124 -15 -45 -38 -89 -66 -123 -62 -77 -73 -103 -85
-206 -7 -61 -17 -102 -29 -120 -10 -15 -31 -53 -45 -84 -14 -32 -29 -58 -32
-58 -3 0 -15 21 -25 46 -28 64 -44 53 -48 -31 -3 -75 19 -163 50 -198 11 -12
16 -15 12 -7 -4 8 5 4 19 -9 31 -28 32 -26 12 22 -18 43 -19 50 -5 42 6 -3 10
-1 10 4 0 21 28 11 49 -16 11 -16 21 -22 21 -15 0 7 4 10 10 7 5 -3 10 -1 10
5 0 21 47 -15 91 -70 42 -51 50 -57 136 -85 92 -31 133 -56 133 -83 0 -31 45
-74 113 -107 87 -43 162 -96 178 -127 12 -22 11 -22 -7 -9 -10 8 3 -5 29 -29
31 -27 44 -45 37 -50 -8 -5 -7 -11 4 -22 8 -9 13 -18 10 -21 -10 -10 -44 6
-49 24 -4 10 -12 19 -19 19 -7 0 -23 11 -36 25 -13 14 -38 32 -54 41 -30 15
-30 14 8 -25 22 -22 43 -38 48 -35 4 3 5 -1 2 -9 -3 -8 9 -26 28 -42 18 -16
25 -26 15 -22 -14 5 -16 3 -8 -11 5 -9 19 -26 32 -37 21 -19 22 -19 16 -2 -4
11 -10 31 -14 45 -6 24 -4 25 10 14 9 -8 13 -20 10 -28 -3 -7 2 -17 11 -20 9
-3 13 -10 10 -15 -3 -5 -2 -14 2 -21 5 -8 9 -6 14 6 4 13 11 7 29 -28 12 -25
26 -46 31 -46 12 0 22 34 11 38 -21 7 -56 41 -43 42 7 0 20 -7 29 -15 14 -14
16 -14 27 1 11 15 15 13 36 -16 13 -19 18 -30 11 -25 -30 18 -3 -21 29 -42 18
-13 28 -23 22 -23 -7 0 -6 -9 3 -27 8 -15 13 -28 11 -30 -1 -2 -17 4 -35 13
-18 9 -69 20 -113 25 -44 5 -84 11 -88 14 -3 2 -52 11 -109 19 -56 9 -111 20
-122 26 -17 9 -27 5 -68 -29 -27 -23 -58 -41 -69 -41 -12 0 -42 18 -67 40 -60
52 -70 51 -20 0 44 -45 89 -62 120 -47 11 5 34 23 52 40 25 24 35 28 46 19 8
-7 16 -10 18 -7 6 5 133 -15 284 -46 108 -21 205 -59 205 -80 0 -5 5 -7 10 -4
6 3 10 1 10 -5 0 -6 4 -9 9 -6 5 3 42 -18 82 -48 85 -61 119 -81 119 -68 0 5
-10 16 -22 25 -33 22 -15 32 23 13 46 -23 47 -20 10 17 -19 17 -45 46 -58 63
-17 23 -30 30 -43 27 -11 -3 -20 0 -20 6 0 5 7 8 15 5 16 -6 20 6 8 22 -5 5
26 -27 67 -70 41 -44 89 -100 107 -124 17 -24 44 -53 59 -63 l28 -18 -27 -6
c-34 -9 -145 10 -223 37 l-61 22 -46 -27 c-72 -42 -153 -32 -213 28 -26 26
-26 26 -48 7 -48 -44 -91 -52 -140 -27 -37 19 -43 19 -73 -5 -27 -21 -83 -28
-83 -10 0 6 -7 10 -15 10 -8 0 -24 9 -35 20 -10 10 -37 28 -58 39 -22 11 -53
37 -70 58 l-31 38 -1 -63 c0 -39 6 -75 16 -94 l16 -31 -81 6 c-45 4 -81 3 -81
-2 0 -4 9 -16 21 -27 11 -10 34 -47 51 -81 17 -35 34 -65 38 -68 4 -3 11 -25
14 -49 4 -25 16 -52 27 -62 35 -31 51 -71 39 -94 -12 -22 -38 -25 -90 -10 -62
18 -53 -6 28 -76 44 -38 82 -79 86 -91 3 -12 15 -24 25 -28 10 -3 22 -17 25
-30 4 -14 10 -25 15 -25 5 0 27 -18 50 -40 22 -22 49 -40 59 -40 9 0 22 -8 29
-19 15 -24 114 -55 147 -47 16 4 51 -5 101 -25 61 -24 84 -29 119 -24 38 6 46
4 59 -15 13 -19 18 -20 38 -10 29 16 93 8 194 -24 44 -14 87 -26 95 -26 22 1
-104 48 -180 68 -36 9 -58 18 -49 20 9 1 72 -15 140 -36 68 -22 140 -44 159
-49 32 -8 28 -10 -46 -16 -44 -3 -94 -11 -110 -17 -37 -15 -205 -41 -216 -34
-4 3 -8 0 -8 -5 0 -14 -126 -15 -135 -2 -8 14 39 47 90 61 39 11 53 10 97 -4
51 -16 173 -23 133 -7 -21 9 -115 30 -173 38 -50 8 -127 -31 -212 -107 -41
-38 -95 -83 -119 -102 -25 -18 -44 -38 -43 -43 1 -6 39 -13 84 -16 46 -3 106
-12 134 -21 28 -8 60 -11 70 -8 11 4 50 11 89 15 38 4 87 14 107 22 21 8 45
12 54 9 9 -3 28 0 42 8 15 7 38 19 52 25 14 7 41 21 60 31 19 11 60 27 90 36
30 9 81 30 113 47 l58 30 157 -46 c86 -26 191 -55 233 -66 223 -57 537 -85
779 -70 74 4 136 7 138 5 1 -2 -29 -55 -68 -119 -38 -64 -70 -121 -70 -126 0
-17 31 -13 101 10 60 21 144 36 231 42 21 1 43 8 50 15 6 6 24 12 39 12 14 0
38 9 51 20 14 11 36 24 49 30 62 28 91 50 157 118 39 39 76 72 82 72 6 0 41
28 78 63 86 80 106 94 238 163 118 62 287 164 371 224 48 34 59 38 144 44 51
4 101 11 111 17 10 6 42 12 71 14 58 3 151 37 182 65 11 10 34 25 52 34 40 20
155 133 216 213 27 35 57 68 68 73 39 21 21 32 -41 25 -57 -7 -60 -6 -69 17
-14 35 14 57 80 65 58 6 105 32 120 67 5 11 15 30 21 41 81 128 106 165 137
198 l35 37 -27 0 c-16 0 -40 -6 -55 -14 -47 -24 -72 -29 -72 -14 0 7 32 71 70
142 52 95 68 132 60 141 -13 16 -3 60 17 76 12 11 43 72 43 86 0 2 -7 -3 -16
-11 -8 -9 -22 -16 -30 -16 -8 0 -14 -4 -14 -10 0 -5 5 -10 10 -10 22 0 8 -28
-20 -40 -23 -10 -33 -10 -44 -1 -12 10 -18 7 -30 -17 -8 -16 -28 -39 -44 -52
-17 -13 -28 -29 -26 -35 5 -12 -30 -14 -41 -3 -10 10 31 91 58 116 13 12 44
26 68 31 35 7 38 9 14 10 l-29 1 20 21 c22 21 98 44 115 34 5 -4 9 -2 9 4 0 5
15 14 33 21 29 9 97 62 97 75 0 3 -20 5 -45 5 -55 0 -62 12 -39 65 15 36 15
40 0 51 -15 10 -15 15 -3 45 20 47 44 133 56 204 6 33 13 70 17 83 5 16 2 22
-10 22 -13 0 -16 12 -16 69 0 59 -3 71 -25 93 -24 25 -25 28 -24 176 0 163 -5
184 -61 273 -17 26 -35 71 -40 105 -33 184 -47 224 -80 224 -24 0 -53 -41 -75
-108 -9 -29 -27 -72 -40 -95 -12 -23 -26 -64 -30 -92 -4 -31 -21 -72 -44 -110
-63 -100 -82 -164 -92 -314 -5 -74 -11 -136 -14 -139 -20 -20 -83 122 -106
238 -10 51 -20 72 -46 99 -39 39 -46 36 -87 -39 -17 -31 -30 -73 -33 -108 -7
-76 -59 -257 -89 -307 -31 -54 -122 -155 -139 -155 -20 0 -41 34 -71 119 -33
93 -43 104 -112 136 -30 14 -72 41 -93 60 -22 19 -41 35 -44 35 -3 0 -33 -11
-66 -25 l-61 -26 -44 41 c-35 32 -51 40 -82 40 -47 0 -63 16 -87 88 -23 73
-53 105 -111 120 -27 7 -91 37 -143 65 -108 59 -137 93 -182 207 -30 77 -67
133 -102 152 -21 11 -68 20 -197 34 -30 4 -61 11 -69 18 -19 15 -50 90 -67
165 -9 35 -22 77 -29 92 -14 26 -212 262 -224 266 -3 1 -27 -28 -54 -65z m71
-11 c15 -48 15 -160 1 -198 -12 -33 -118 -143 -137 -143 -11 0 -81 -48 -102
-70 -3 -3 -12 -6 -20 -8 -19 -5 -40 -22 -40 -33 0 -5 13 -3 30 6 16 8 35 15
41 15 7 0 30 19 52 43 21 23 35 35 31 27 -16 -30 -68 -106 -87 -127 -33 -37
-4 -26 33 12 18 19 36 32 39 30 6 -7 81 66 81 78 0 5 -8 3 -17 -4 -10 -7 -4 2
12 21 17 19 31 37 33 39 9 16 -10 -91 -21 -119 -20 -47 -22 -72 -13 -157 8
-70 7 -73 -21 -106 -54 -65 -263 -249 -263 -232 0 9 16 36 35 59 19 23 41 59
49 78 9 20 26 49 38 64 46 57 51 68 10 24 -23 -25 -55 -68 -71 -95 -16 -28
-36 -57 -45 -64 -9 -7 -13 -17 -11 -22 3 -4 -12 -26 -35 -49 -22 -22 -35 -40
-28 -40 6 0 3 -10 -8 -22 l-19 -22 25 17 c34 24 91 49 97 43 9 -9 -8 -25 -79
-76 -40 -27 -68 -50 -62 -50 5 0 26 11 46 25 46 31 58 31 58 1 0 -26 -33 -56
-62 -56 -9 0 -20 -5 -24 -11 -4 -7 0 -9 12 -5 29 9 48 -8 40 -37 -4 -19 -15
-27 -38 -32 -48 -10 -70 -16 -66 -20 2 -2 21 0 41 5 33 7 38 6 35 -8 -2 -10
-19 -25 -38 -35 -32 -17 -32 -18 -7 -13 26 6 27 5 17 -14 -7 -13 -21 -20 -43
-21 -30 -1 -30 -1 -7 -8 24 -7 25 -10 28 -106 2 -64 -3 -129 -13 -180 -22
-106 -28 -117 -48 -79 -8 16 -26 36 -40 43 -13 7 -33 34 -45 59 -12 26 -31 61
-42 77 -28 42 -41 75 -34 86 3 5 0 9 -7 9 -7 0 -10 3 -6 6 3 3 2 16 -3 29 -5
14 -5 26 3 34 8 8 6 11 -7 11 -9 0 -15 4 -12 9 4 5 0 11 -6 14 -11 3 -11 9 0
26 7 11 8 21 3 21 -25 0 -17 35 18 82 22 28 58 88 80 133 32 65 41 94 41 135
0 47 4 57 38 94 24 26 54 80 82 145 36 85 49 107 77 124 40 23 57 53 72 127 6
31 19 67 29 82 29 45 133 180 195 252 32 37 63 79 69 92 15 33 23 30 36 -15z
m-2179 -240 c26 -26 61 -141 61 -200 -1 -45 -1 -45 -15 -21 -16 28 -19 14 -9
-38 5 -22 10 -28 24 -25 12 3 22 -3 30 -19 7 -12 41 -66 76 -118 59 -87 65
-101 71 -162 3 -42 2 -72 -5 -80 -13 -16 2 -37 43 -60 50 -27 69 -79 71 -189
1 -52 6 -105 13 -117 15 -28 14 -37 -3 -22 -8 6 -17 21 -19 33 -4 19 -4 19 -6
-4 0 -14 -9 -34 -20 -43 -18 -16 -19 -16 -24 6 -4 13 -9 51 -11 83 -5 56 -5
57 5 20 24 -95 29 -102 24 -38 -3 34 -13 79 -24 99 -18 34 -19 70 -1 59 5 -3
12 0 16 6 4 8 12 1 21 -17 7 -16 11 -21 8 -11 -3 10 -5 23 -5 27 0 5 -16 17
-35 26 -26 12 -47 36 -76 85 -22 38 -42 69 -45 69 -3 0 3 -15 14 -32 10 -18
29 -50 42 -71 33 -56 16 -65 -58 -32 -39 18 -68 25 -82 20 -15 -5 -26 -1 -35
12 -13 17 -14 15 -15 -14 0 -20 -5 -33 -13 -33 -10 0 -12 -26 -9 -122 3 -68 8
-132 12 -143 4 -11 6 8 3 43 -4 40 -2 62 5 62 6 0 12 -6 15 -12 3 -8 9 -3 15
12 9 21 11 14 11 -44 1 -60 5 -73 30 -105 16 -20 37 -53 47 -74 17 -36 17 -38
-1 -51 -10 -7 -16 -20 -13 -28 4 -8 -8 -28 -27 -47 l-34 -32 -14 23 c-9 13
-32 50 -52 83 -42 69 -37 36 6 -42 35 -63 37 -78 10 -63 -26 13 -35 -1 -26
-40 5 -23 3 -32 -10 -36 -8 -4 -23 -21 -32 -38 l-16 -31 -14 42 c-12 34 -21
44 -49 53 -19 6 -34 17 -35 23 0 9 -2 8 -6 0 -3 -9 -10 -10 -22 -3 -16 8 -16
15 -8 59 6 27 14 48 19 45 11 -7 10 7 -1 25 -12 18 21 96 40 96 8 1 13 7 11
14 -1 7 2 10 8 6 5 -3 10 -21 11 -38 l1 -32 9 30 c5 17 7 36 4 43 -3 7 -1 11
4 8 5 -3 14 1 21 10 16 18 29 3 31 -36 l1 -25 7 25 c4 14 4 38 -1 55 -4 16 -8
66 -8 110 0 44 -4 87 -9 94 -7 10 -8 2 -5 -25 6 -51 -9 -130 -24 -126 -13 2
-16 -4 -26 -51 -4 -15 -11 -25 -17 -22 -5 4 -16 1 -24 -5 -12 -10 -17 -7 -26
16 l-12 29 -7 -40 c-6 -29 -19 -50 -49 -76 -23 -21 -54 -62 -70 -93 -26 -52
-29 -55 -43 -38 -37 43 -82 118 -80 132 2 8 25 34 50 57 28 25 41 43 31 43 -8
0 -21 -6 -28 -12 -10 -11 -12 -9 -9 7 2 12 11 20 23 20 16 0 19 6 17 28 -2 17
3 36 13 47 10 11 15 26 12 34 -3 7 2 29 12 47 19 36 18 63 -2 53 -7 -3 -5 0 4
8 11 9 15 25 12 55 -5 51 19 115 41 107 9 -3 19 3 26 18 10 19 10 21 -1 11
-15 -15 -29 -17 -29 -4 0 5 10 30 22 57 13 27 23 54 24 59 2 34 20 87 45 135
35 69 44 104 65 260 9 69 20 135 25 148 11 28 51 30 78 3z m2037 -189 c-18
-16 -18 -16 -6 6 6 13 14 21 18 18 3 -4 -2 -14 -12 -24z m2735 -38 c12 -53 11
-97 -1 -89 -5 3 -10 0 -10 -8 0 -8 -7 -20 -15 -27 -13 -10 -15 -9 -15 9 0 14
4 20 11 15 8 -5 8 -1 0 14 -13 24 -15 45 -3 39 4 -3 5 20 4 51 -4 65 13 63 29
-4z m-41 24 c0 -7 -12 -26 -25 -43 l-26 -30 21 43 c21 43 30 52 30 30z m-7
-110 c-3 -40 -11 -88 -19 -106 -9 -18 -14 -52 -12 -75 2 -29 -3 -52 -18 -77
-12 -19 -25 -46 -29 -60 -4 -14 -29 -47 -56 -73 -49 -49 -64 -52 -32 -8 9 14
11 21 5 17 -16 -10 -15 6 2 29 12 17 12 21 -1 30 -12 9 -10 16 11 48 14 20 21
37 16 37 -13 0 50 123 71 138 11 7 19 19 19 25 0 7 -7 4 -14 -5 -15 -21 -36
-24 -36 -5 0 13 24 52 47 75 7 7 13 18 13 23 0 9 29 59 35 59 1 0 0 -33 -2
-72z m100 -159 c9 -14 18 -39 18 -55 2 -44 9 -65 20 -59 5 4 9 4 9 1 0 -2 3
-13 6 -23 5 -15 4 -15 -5 -3 -16 23 -12 -2 5 -30 8 -14 13 -17 10 -7 -3 11 -2
15 4 12 6 -3 10 -42 10 -86 l0 -79 -27 17 -27 18 23 -31 c12 -17 25 -51 28
-75 l5 -44 -26 27 c-14 15 -26 38 -26 51 0 13 -10 37 -22 53 -18 23 -19 27 -5
21 15 -6 15 -4 -2 21 -26 37 -36 72 -19 72 7 0 2 7 -11 16 -32 23 -7 38 26 17
24 -16 24 -16 12 10 -7 15 -23 34 -36 43 -20 12 -23 21 -18 41 4 19 0 32 -15
48 -17 18 -19 27 -12 42 6 10 10 20 10 23 0 3 5 18 11 33 6 16 11 34 12 40 0
7 6 -10 13 -38 7 -27 20 -62 29 -76z m-63 99 c0 -7 -7 -33 -16 -57 -14 -42
-14 -45 7 -67 19 -20 20 -27 10 -55 -14 -41 -14 -42 5 -35 13 5 14 2 9 -11 -4
-10 -8 -25 -7 -33 1 -28 24 -105 43 -145 25 -53 24 -61 -6 -41 -13 9 -30 16
-37 15 -7 0 -3 -5 8 -11 25 -12 69 -100 61 -121 -3 -8 3 -32 13 -54 10 -22 21
-58 24 -79 6 -34 3 -43 -17 -62 -27 -25 -58 -26 -69 -2 -4 8 -7 40 -7 70 -2
81 -14 93 -41 40 l-22 -44 -15 34 c-11 27 -12 45 -3 83 5 26 10 60 9 75 -1 18
-4 13 -10 -18 -16 -83 -18 -90 -34 -84 -10 4 -15 0 -15 -12 0 -15 -2 -16 -9
-5 -5 7 -14 10 -20 7 -6 -4 -9 -11 -6 -16 3 -5 1 -11 -5 -15 -15 -9 -12 -25 3
-19 8 3 18 -9 25 -30 7 -19 19 -40 27 -46 13 -11 15 -7 15 24 0 37 13 48 24
20 10 -25 7 -64 -4 -64 -7 0 -8 -13 -4 -35 3 -19 4 -35 1 -35 -2 0 -16 24 -31
53 -14 28 -35 63 -47 77 -11 14 -18 20 -15 14 3 -7 -1 -14 -9 -18 -8 -3 -15
-16 -15 -28 0 -19 2 -20 10 -8 7 11 10 7 11 -20 l2 -35 6 40 7 40 20 -40 c31
-58 40 -90 23 -79 -11 6 -12 5 -3 -7 6 -8 14 -29 16 -46 6 -44 -11 -29 -42 37
l-23 50 -17 -47 c-13 -41 -14 -52 -3 -75 20 -42 16 -85 -9 -102 -16 -11 -24
-12 -29 -5 -8 14 -24 -28 -20 -53 3 -24 -27 -78 -44 -78 -10 0 -12 -7 -5 -30
8 -27 13 -97 11 -144 -1 -16 -3 -17 -18 -5 -9 8 -22 29 -30 47 -16 38 -23 41
-23 7 0 -14 15 -41 35 -64 19 -21 35 -47 35 -57 0 -11 7 -41 15 -68 8 -27 13
-51 11 -53 -2 -2 -15 12 -30 32 -15 19 -32 35 -38 35 -16 0 -37 32 -38 55 0
17 4 16 25 -10 l25 -30 -17 38 c-10 23 -22 36 -30 33 -8 -3 -13 2 -13 14 0 10
-5 22 -11 26 -9 5 -10 -12 -5 -64 10 -99 18 -121 65 -183 34 -44 41 -60 36
-83 -3 -16 -7 -31 -8 -32 -10 -10 -85 25 -113 52 -18 18 -42 35 -53 39 -11 3
-30 18 -41 32 -11 14 -20 22 -20 17 -1 -5 -14 7 -31 26 -24 29 -31 32 -39 20
-9 -15 -4 -165 8 -230 3 -19 7 -39 7 -45 1 -5 5 -19 9 -30 5 -11 12 -32 18
-46 5 -14 29 -46 54 -70 43 -42 50 -61 38 -106 -9 -32 -18 -29 -40 12 -10 20
-24 33 -31 31 -7 -3 -12 0 -10 7 1 7 -4 11 -10 9 -7 -1 -13 3 -13 9 0 19 -61
89 -91 104 -15 8 -45 14 -66 14 l-38 -2 45 -6 c43 -7 90 -26 90 -37 0 -3 -16
-2 -36 2 -29 5 -50 0 -112 -29 -42 -20 -98 -42 -123 -48 -54 -14 -82 -6 -160
47 l-47 33 -53 -40 c-114 -86 -166 -96 -277 -57 l-63 23 -42 -24 c-144 -82
-197 -105 -182 -81 6 9 2 9 -15 0 -12 -6 -19 -14 -17 -17 14 -14 93 13 168 58
46 27 88 49 93 49 5 0 43 -11 83 -25 62 -22 79 -24 112 -15 38 10 153 79 165
99 12 18 34 13 89 -24 28 -19 66 -37 84 -41 36 -7 109 14 195 57 58 29 83 34
112 23 27 -10 20 -84 -14 -156 -18 -38 -30 -79 -30 -104 0 -33 -4 -43 -24 -52
-15 -6 -27 -23 -31 -41 -8 -38 -30 -51 -84 -51 -23 0 -64 -9 -93 -20 -29 -11
-54 -20 -55 -20 -1 0 -11 30 -24 67 -26 81 -52 135 -73 152 -12 10 -17 9 -25
-8 -6 -11 -11 -29 -11 -40 0 -41 -32 -102 -62 -117 -16 -8 -33 -12 -38 -9 -5
3 -27 -3 -49 -15 -55 -28 -81 -28 -139 -1 l-49 23 -89 -36 c-48 -20 -102 -36
-119 -36 -18 0 -54 14 -85 35 -30 19 -60 35 -66 35 -7 0 -43 -14 -80 -32 -58
-27 -84 -33 -159 -36 -77 -4 -101 0 -168 22 -42 14 -87 26 -98 26 -11 0 -54
-23 -96 -52 l-75 -52 -96 22 c-53 12 -98 26 -101 30 -3 5 -18 12 -33 16 -15 3
-56 28 -91 55 -36 27 -80 53 -99 56 -19 4 -41 11 -49 16 -16 11 -16 11 114
107 86 62 135 124 227 283 30 52 176 209 186 200 4 -3 4 0 0 7 -4 6 -3 12 3
12 6 0 26 24 46 52 43 64 47 51 5 -15 -38 -60 -38 -66 -1 -25 l29 32 7 -34
c10 -47 88 -171 134 -212 l37 -34 -38 -27 c-26 -18 -51 -27 -77 -27 -34 0 -44
-6 -85 -54 -62 -73 -58 -82 7 -18 49 48 54 51 73 38 19 -13 25 -11 79 30 61
45 75 52 75 34 0 -7 6 -7 19 0 29 15 36 12 36 -14 0 -13 -3 -22 -7 -19 -5 2
-8 -3 -8 -12 0 -8 7 -18 15 -21 8 -4 16 -14 16 -23 1 -9 5 -2 9 14 l8 30 1
-36 c3 -90 -32 -121 -284 -251 -71 -37 -126 -67 -122 -68 18 0 266 132 353
188 66 43 105 61 140 66 76 11 149 50 217 114 63 60 130 104 247 162 44 22 88
57 140 110 78 80 146 128 133 93 -4 -11 10 -4 36 18 23 21 120 75 214 122 97
48 207 111 253 145 79 58 180 165 209 223 9 16 22 29 30 29 22 0 93 -67 131
-125 l34 -50 0 55 c0 30 7 68 15 84 l16 30 -22 -20 c-24 -20 -18 -3 9 29 17
19 3 24 -16 5 -6 -6 -14 -9 -17 -6 -10 9 65 60 80 54 8 -3 16 -2 19 2 7 12
-37 12 -51 0 -7 -6 -13 -6 -13 -2 0 5 9 15 21 22 12 8 20 22 19 35 -3 37 0 58
8 54 4 -3 8 13 9 35 0 22 6 45 12 51 6 6 11 24 11 39 0 16 7 45 15 65 16 37
15 37 -3 18 -11 -11 -17 -26 -14 -32 2 -7 0 -13 -6 -13 -5 0 -18 -22 -28 -50
-18 -49 -42 -72 -30 -27 3 12 9 33 12 47 6 24 6 24 -9 5 -14 -18 -15 -17 -7
20 10 55 27 95 40 95 5 0 10 7 10 16 0 9 8 23 18 32 10 10 11 13 4 7 -12 -8
-14 -5 -7 15 4 14 11 30 15 35 4 6 11 31 14 57 8 53 14 59 63 65 37 4 43 -10
16 -39 -9 -10 -11 -18 -6 -18 6 0 14 -7 17 -16 6 -15 0 -25 -40 -69 -12 -13
-20 -26 -17 -29 2 -2 21 14 40 35 21 23 42 38 50 35 9 -4 16 4 20 24 3 17 10
30 15 30 5 0 6 21 2 49 -4 30 -2 56 6 71 8 15 8 20 1 16 -6 -4 -15 3 -20 16
-9 21 -10 20 -10 -10 -1 -59 -33 -92 -70 -72 -13 6 -24 5 -37 -5 -35 -27 -39
-15 -6 18 18 17 43 52 55 77 12 25 32 49 43 54 21 9 21 11 7 42 -18 37 -10
102 12 111 8 3 12 9 9 15 -8 12 3 38 16 38 5 0 10 -6 10 -12z m-2606 -105 c20
-21 46 -58 58 -82 19 -40 20 -51 11 -122 -9 -64 -18 -90 -50 -141 -22 -35 -55
-89 -74 -121 -19 -32 -60 -81 -93 -110 -59 -51 -95 -111 -111 -187 -9 -44 -64
-142 -75 -135 -5 3 -12 0 -16 -6 -4 -8 -3 -9 4 -5 19 12 14 -5 -15 -43 -23
-32 -20 -31 23 12 41 38 52 45 63 35 11 -10 12 -10 7 0 -4 6 -2 12 5 12 23 0
4 -143 -27 -200 l-28 -51 -18 35 c-24 46 -51 59 -105 53 l-45 -5 29 32 c49 52
62 75 28 46 -17 -14 -35 -31 -42 -38 -22 -26 -25 9 -4 58 21 48 31 109 50 287
7 67 19 113 44 170 18 43 44 110 56 148 43 135 79 194 161 261 41 34 79 59 84
56 5 -3 6 0 2 6 -8 13 20 72 33 72 5 0 25 -17 45 -37z m-2380 -20 c-4 -19 -15
-35 -30 -42 -30 -13 -30 -10 2 40 29 46 37 46 28 2z m2602 2 c-3 -10 3 -17 20
-21 14 -4 22 -9 19 -12 -3 -3 2 -14 12 -24 9 -10 14 -18 11 -18 -3 0 5 -12 18
-27 74 -86 199 -253 234 -313 23 -39 52 -100 66 -138 28 -75 52 -103 139 -170
l60 -45 -82 83 c-58 58 -79 86 -70 92 7 4 19 -1 30 -15 16 -20 17 -20 11 -2
-6 16 -1 14 27 -10 19 -17 43 -37 55 -45 11 -8 0 4 -25 27 -25 23 -46 46 -46
52 0 5 -4 13 -9 18 -6 5 -6 2 -1 -7 5 -8 5 -12 1 -8 -4 3 -8 10 -8 15 0 4 -5
14 -11 22 -10 11 -7 13 13 7 l25 -7 -24 21 c-21 18 -22 23 -10 31 7 5 22 7 32
5 28 -7 20 2 -20 21 -27 13 -33 19 -20 21 10 2 14 8 10 15 -12 19 -12 36 -1
44 7 4 8 1 3 -7 -5 -9 -4 -11 4 -6 6 4 8 13 4 19 -39 62 -67 96 -74 91 -5 -3
-6 2 -3 11 4 8 -2 27 -11 43 -10 15 -12 21 -4 15 20 -19 33 -16 19 5 -7 9 4
-1 25 -23 45 -49 78 -111 100 -190 9 -33 30 -100 46 -149 16 -49 38 -131 49
-183 11 -52 28 -114 39 -137 20 -47 125 -207 177 -271 17 -22 48 -68 68 -102
21 -35 39 -63 42 -63 5 0 -53 108 -92 171 -24 39 -21 58 5 36 9 -8 36 -21 60
-31 23 -9 59 -28 79 -41 56 -38 56 -30 -1 27 -29 28 -42 43 -29 33 12 -10 22
-13 22 -8 0 11 -25 26 -45 28 -15 1 -52 24 -39 25 5 0 15 -5 22 -12 7 -7 12
-10 12 -7 0 3 -14 18 -32 35 -17 16 -28 23 -24 17 7 -13 0 -12 -56 9 -16 6
-28 14 -28 19 0 12 6 11 43 -7 l32 -15 -35 31 c-24 22 -29 30 -15 26 14 -4 8
5 -17 29 -40 37 -48 51 -24 42 15 -6 16 9 3 30 -6 9 -3 11 10 6 16 -6 16 -4
-2 16 l-19 22 47 -20 c26 -11 47 -19 47 -17 0 2 -34 27 -75 55 -41 28 -77 56
-80 61 -10 16 11 11 25 -5 7 -8 17 -15 23 -15 7 0 7 4 -1 12 -19 19 -14 26 13
20 14 -2 31 -13 39 -23 7 -10 16 -16 21 -11 5 4 5 2 1 -5 -3 -6 -2 -14 4 -18
5 -3 10 -2 10 4 0 6 8 8 18 5 9 -3 0 5 -21 19 -44 28 -59 43 -34 34 46 -18 49
-17 18 3 -64 41 -121 94 -112 103 5 5 7 16 4 24 -5 13 -2 13 16 3 21 -11 22
-10 11 10 -10 19 -8 19 32 -6 27 -17 38 -21 29 -10 -8 10 -40 31 -70 47 -31
17 -49 28 -41 26 8 -2 26 -7 40 -11 l25 -7 -25 20 c-27 22 -21 27 13 10 l22
-10 -21 18 c-12 10 -30 24 -40 31 -11 7 -13 10 -6 7 6 -3 12 -3 12 2 0 4 -23
21 -51 36 -56 31 -62 49 -7 22 l33 -17 -40 36 c-35 32 -25 42 13 13 7 -5 15
-7 19 -4 3 4 -34 47 -82 97 -49 49 -84 90 -79 90 17 0 176 -169 231 -245 66
-91 69 -98 98 -205 31 -119 121 -273 227 -392 43 -48 78 -89 78 -93 0 -3 -18
-35 -41 -70 -54 -86 -90 -115 -140 -115 -22 0 -59 -10 -82 -21 -40 -20 -157
-133 -157 -151 0 -4 -17 -8 -37 -8 -21 -1 -49 -7 -63 -15 -14 -8 -30 -14 -36
-15 -6 0 -28 37 -49 83 -34 71 -54 96 -147 188 -114 113 -131 141 -143 229 -8
63 -18 69 96 -59 78 -88 192 -191 212 -191 6 0 -6 14 -28 32 -64 50 -179 172
-167 176 6 2 -6 19 -26 38 -20 20 -30 32 -22 28 13 -7 13 -5 1 9 -7 9 -10 17
-6 17 4 0 1 8 -6 17 -14 17 35 -14 80 -52 14 -11 4 5 -22 35 -44 51 -60 79
-37 65 5 -3 20 -8 31 -10 12 -3 30 -12 40 -21 17 -15 18 -15 16 4 0 11 -4 20
-7 19 -8 -3 -101 75 -96 80 2 3 15 -1 28 -8 12 -7 29 -14 36 -15 8 -1 22 -10
31 -18 10 -9 23 -16 30 -16 6 0 30 -9 51 -20 22 -11 40 -19 40 -17 0 2 -20 18
-45 36 -49 35 -63 64 -17 37 26 -16 26 -16 -3 8 -16 14 -42 31 -57 37 -16 6
-28 16 -28 21 0 5 -4 7 -9 3 -5 -3 -16 3 -23 13 -7 9 -26 28 -43 41 -28 22
-29 23 -5 16 21 -7 23 -6 13 7 -18 21 -5 30 21 15 11 -6 26 -12 31 -13 50 -5
155 -108 175 -171 21 -65 56 -116 132 -190 83 -82 146 -131 81 -62 -24 25 -43
50 -43 57 0 8 -5 10 -12 6 -7 -4 -8 -3 -4 4 4 6 -1 24 -11 39 -11 16 -23 35
-28 44 -22 37 -95 136 -124 169 -31 35 -41 57 -19 44 7 -4 8 -3 4 5 -4 6 -11
9 -16 6 -11 -7 -70 83 -77 118 -3 16 -12 31 -19 34 -7 3 -24 24 -38 47 -13 23
-37 54 -52 69 -16 16 -20 25 -11 21 9 -3 17 -1 17 5 0 17 -40 50 -113 93 -38
22 -70 45 -73 52 -3 7 -27 23 -54 37 -45 22 -48 26 -43 53 5 24 3 28 -10 23
-9 -3 -19 -2 -22 4 -4 5 -3 9 2 8 31 -5 32 4 3 26 -23 17 -29 25 -17 25 10 0
20 -6 23 -14 3 -8 12 -12 20 -9 8 3 14 1 14 -5 0 -5 11 -7 25 -4 31 5 32 18 4
27 -16 5 -18 9 -9 15 9 6 5 13 -14 25 -14 9 -23 21 -20 26 3 5 10 7 15 4 5 -4
9 -2 9 3 0 6 -7 13 -16 16 -9 4 -14 9 -10 13 3 4 -6 19 -21 35 -28 29 -39 58
-21 58 6 0 8 -7 4 -15z m-2655 -151 c-21 -55 -44 -126 -51 -159 -21 -110 -64
-235 -92 -268 l-27 -32 -1 25 c-1 23 -2 23 -15 -7 -10 -24 -21 -33 -37 -33
-30 0 -56 17 -43 28 6 4 11 15 13 26 7 38 22 66 36 66 22 0 79 58 70 71 -5 8
-3 9 6 4 9 -6 10 -2 5 15 -5 16 -4 20 4 15 8 -5 10 1 5 19 -3 15 -2 26 4 26 6
0 8 9 5 19 -9 36 135 307 153 288 3 -2 -13 -49 -35 -103z m1689 -114 c-4 -69
-13 -144 -20 -168 l-13 -43 -28 27 c-21 20 -26 31 -18 40 6 8 7 14 0 18 -5 4
-19 -13 -30 -36 -11 -24 -30 -59 -42 -78 l-23 -35 23 20 24 20 -6 -20 c-18
-65 -19 -67 -30 -56 -6 6 -18 11 -27 11 -9 0 -34 13 -57 30 l-40 30 38 40 c21
22 59 84 84 138 37 78 57 107 103 149 31 28 59 48 63 45 3 -4 2 -63 -1 -132z
m-606 -24 c-8 -65 -19 -126 -24 -136 -28 -53 15 -158 92 -222 46 -39 49 -45
44 -77 -8 -53 12 -127 50 -177 49 -63 43 -125 -20 -233 -17 -30 -21 -32 -26
-15 -6 17 -8 17 -15 -6 -5 -14 -10 -31 -11 -39 -2 -8 -11 -21 -20 -30 -17 -15
-17 -15 -1 12 18 28 11 36 -13 15 -7 -7 -3 2 10 20 12 19 23 48 24 66 0 18 6
33 13 33 8 0 9 -6 3 -18 -8 -13 -6 -17 8 -14 17 3 18 22 2 39 -11 11 -43 -1
-35 -13 10 -18 -13 -21 -26 -4 -12 14 -12 16 0 8 10 -6 12 -4 7 4 -6 9 -13 8
-29 -6 -20 -18 -20 -18 -13 7 22 75 23 89 11 94 -7 2 -18 -1 -25 -7 -16 -15
-10 9 14 66 9 20 14 37 11 37 -9 0 -55 -79 -55 -94 0 -8 -5 -18 -12 -22 -7 -5
-8 -2 -3 7 6 10 4 10 -7 -1 -8 -8 -25 -33 -37 -55 l-23 -40 26 30 c32 37 33
26 4 -26 -25 -45 -48 -55 -80 -37 -13 7 -30 11 -38 10 -8 -2 0 9 18 23 18 15
39 39 47 55 11 21 0 14 -41 -27 -30 -30 -58 -52 -61 -49 -4 4 12 24 35 45 23
22 42 43 42 47 0 4 -12 -3 -27 -17 -16 -14 -37 -32 -47 -40 -18 -12 -19 -12
-11 1 4 8 17 26 29 39 18 22 16 21 -19 -5 l-39 -29 22 32 c25 36 29 51 7 33
-11 -9 -18 -10 -28 -1 -8 6 -17 8 -20 4 -4 -3 -7 -3 -7 0 0 3 9 11 20 17 17 9
19 8 13 -7 -5 -14 -3 -16 7 -6 11 10 11 15 0 28 -12 14 -20 56 -21 109 0 21
70 127 159 241 l55 70 -62 -60 c-74 -72 -216 -278 -219 -318 -3 -41 -38 -117
-54 -117 -8 0 -19 5 -25 11 -21 21 -77 0 -147 -56 -38 -30 -71 -55 -73 -55
-12 0 -55 29 -115 78 l-68 54 22 32 c12 17 60 75 107 129 78 89 143 145 316
270 62 44 150 135 245 252 76 93 142 166 146 162 2 -1 -4 -56 -12 -121z m1947
107 c13 -16 12 -17 -3 -4 -10 7 -18 15 -18 17 0 8 8 3 21 -13z m1529 2 c11
-13 10 -14 -4 -9 -10 4 -16 1 -16 -7 0 -8 -3 -25 -5 -39 -5 -23 -4 -23 6 3 10
27 29 37 29 16 0 -5 4 -8 9 -5 9 6 28 -62 34 -119 2 -16 9 -40 15 -52 21 -39
33 -75 22 -68 -16 10 -12 -11 5 -25 8 -7 12 -17 8 -23 -3 -5 -1 -7 4 -4 6 4
18 -2 28 -13 14 -15 17 -31 13 -75 -4 -52 -8 -59 -66 -116 -45 -44 -67 -77
-84 -121 -22 -57 -77 -136 -78 -111 0 6 11 25 25 41 14 17 25 33 25 37 0 10
-40 -34 -63 -69 -27 -41 -31 -26 -7 29 27 63 18 71 -11 8 -12 -26 -26 -51 -31
-54 -5 -3 -10 -10 -10 -15 -1 -18 -21 -54 -30 -54 -5 0 -6 -5 -2 -12 5 -7 3
-8 -5 -4 -7 5 -18 0 -26 -10 -13 -18 -14 -17 -8 4 3 13 16 29 29 34 13 6 25
19 25 30 3 35 4 39 19 48 13 8 13 10 1 10 -12 0 -12 3 -3 12 7 7 12 18 12 26
0 11 -3 11 -15 -2 -8 -8 -15 -21 -15 -30 0 -8 -5 -18 -12 -22 -7 -5 -9 -2 -6
7 3 8 11 41 18 74 7 33 16 68 21 77 8 14 6 16 -8 11 -14 -5 -12 0 7 28 17 23
19 30 6 20 -10 -8 -26 -33 -37 -55 -24 -50 -58 -96 -59 -78 0 7 7 27 16 44 9
16 11 27 5 24 -5 -4 -16 -19 -24 -35 -12 -23 -12 -31 0 -46 7 -11 13 -15 13
-9 0 5 14 25 31 44 27 32 30 33 24 10 -4 -14 -13 -29 -19 -35 -7 -5 -18 -21
-25 -35 l-12 -25 21 25 c16 19 19 20 12 5 -5 -11 -12 -36 -16 -55 -8 -43 -28
-90 -38 -90 -11 0 -10 8 4 33 14 25 20 79 8 72 -9 -5 -26 -49 -34 -88 -4 -15
-10 -25 -15 -23 -9 6 -5 91 5 109 4 7 -2 3 -14 -7 -19 -17 -22 -17 -22 -3 0
10 5 17 10 17 6 0 16 12 22 28 13 32 12 27 22 77 11 58 47 107 105 144 28 18
59 47 70 64 22 36 52 119 46 125 -5 5 -25 -43 -25 -59 0 -25 -49 -90 -92 -120
l-26 -19 11 24 c7 13 15 22 19 20 4 -3 5 3 1 12 -5 13 -3 16 10 11 12 -4 14
-2 10 10 -5 13 -2 15 12 10 15 -6 16 -5 5 8 -9 11 -9 15 -1 15 7 0 10 4 7 9
-4 5 0 11 6 13 7 3 14 20 14 39 2 47 11 77 30 108 16 24 16 25 1 12 -15 -12
-17 -11 -17 11 0 13 8 34 17 47 9 14 11 21 5 17 -6 -3 -13 -2 -16 3 -4 5 -2
12 3 16 6 3 7 13 4 21 -6 16 35 114 47 114 4 0 13 -7 20 -15z m442 -96 c-9
-37 -38 -51 -44 -22 -2 10 8 37 22 61 23 39 25 41 28 18 2 -13 -1 -39 -6 -57z
m-3762 -59 c136 -153 169 -217 220 -423 16 -66 39 -135 50 -154 25 -42 15 -63
-22 -45 -21 11 -21 11 7 6 24 -5 19 1 -28 30 -32 20 -63 36 -70 35 -7 0 -1 -5
12 -10 13 -5 21 -12 17 -16 -3 -3 -18 0 -34 8 -36 18 -77 49 -65 49 5 0 18 -7
29 -15 22 -17 38 -20 29 -5 -8 13 -3 13 32 -1 l28 -10 -35 37 c-19 21 -26 32
-15 24 41 -29 64 -53 59 -61 -8 -14 3 -10 15 5 10 12 3 20 -35 47 -26 18 -53
32 -59 32 -6 0 -12 6 -12 14 0 17 3 16 38 -4 15 -9 32 -14 35 -10 9 9 -36 58
-47 51 -12 -7 -58 28 -59 43 0 7 7 10 18 7 9 -3 -4 8 -30 25 -27 17 -54 31
-60 31 -9 0 -8 3 2 10 10 6 22 4 37 -5 28 -19 39 -19 24 -2 -15 19 -2 28 22
16 30 -17 12 6 -26 32 -30 22 -31 22 -14 2 12 -14 15 -23 8 -28 -6 -3 -11 -1
-11 4 0 6 -7 11 -16 11 -10 0 -14 7 -12 22 2 11 -3 23 -11 26 -8 3 -11 0 -7
-6 3 -6 1 -14 -6 -18 -7 -4 -10 -4 -6 1 4 4 3 14 -3 22 -6 7 -8 13 -5 13 4 0
2 9 -4 20 -22 42 19 19 95 -52 63 -59 75 -66 61 -41 -9 18 -23 36 -32 41 -9 5
-15 13 -15 18 1 5 -3 9 -7 9 -4 0 -30 19 -57 42 -28 24 -45 43 -39 43 17 0 24
38 10 50 -7 5 -17 6 -22 2 -5 -4 -6 -3 -2 2 4 5 -6 24 -23 44 -17 19 -28 41
-25 49 3 8 2 11 -4 8 -5 -3 -14 4 -20 16 -8 15 -8 19 -1 15 7 -5 9 -1 5 8 -3
9 -9 14 -13 12 -3 -2 -7 7 -7 21 -1 13 -1 23 1 21 2 -2 49 -55 105 -118z
m-880 11 c0 7 9 6 25 -5 18 -12 23 -12 19 -3 -3 9 3 13 18 12 38 -3 106 -124
99 -176 -1 -9 4 -29 10 -45 6 -16 15 -48 19 -71 7 -43 6 -43 -37 -69 -25 -14
-46 -24 -49 -22 -2 2 -22 33 -45 69 -33 51 -43 77 -49 129 -5 36 -15 81 -23
100 -8 19 -17 48 -21 63 -6 26 -5 27 14 17 15 -8 20 -8 20 1z m4466 -47 c-4
-14 -9 -24 -12 -21 -3 2 -2 17 2 31 3 15 9 25 11 22 3 -3 2 -17 -1 -32z
m-4978 -21 c-11 -43 -45 -103 -58 -103 -4 0 8 32 27 70 19 39 36 70 38 70 2 0
-1 -17 -7 -37z m126 2 c-4 -8 -11 -15 -16 -15 -6 0 -5 6 2 15 7 8 14 15 16 15
2 0 1 -7 -2 -15z m1211 -5 c3 -5 1 -10 -4 -10 -6 0 -11 5 -11 10 0 6 2 10 4
10 3 0 8 -4 11 -10z m37 -84 c16 -30 -7 -11 -43 37 l-33 42 33 -30 c18 -16 37
-38 43 -49z m3 44 c16 -17 16 -20 3 -15 -9 4 -19 13 -22 21 -7 19 -2 18 19 -6z
m3963 -6 c21 13 43 -32 40 -80 -3 -47 -4 -48 -15 -22 -7 15 -28 50 -48 78 -32
46 -33 49 -11 35 14 -9 29 -14 34 -11z m-1388 -116 c52 -64 110 -128 128 -144
35 -28 112 -127 112 -142 0 -5 -9 -17 -20 -27 -12 -11 -33 -41 -47 -67 -25
-47 -27 -48 -46 -31 -10 10 -23 26 -29 36 -8 16 -7 17 11 7 21 -11 31 3 10 15
-6 4 -8 13 -5 21 3 7 -4 20 -15 27 -17 12 -17 15 -5 20 9 4 18 2 21 -2 5 -8
45 -22 45 -16 0 2 -16 13 -35 25 -37 23 -50 49 -16 30 26 -13 32 -13 29 3 -2
6 -14 20 -28 30 l-25 19 25 -7 c24 -6 24 -5 -2 10 -34 19 -36 29 -4 21 19 -5
14 5 -30 49 -30 30 -54 59 -54 65 0 5 -5 10 -11 10 -5 0 -7 -5 -3 -12 4 -7 3
-8 -4 -4 -6 4 -9 13 -5 21 3 11 -5 19 -26 26 -29 10 -43 29 -21 29 6 0 0 18
-12 39 -12 22 -25 39 -28 39 -11 -2 -40 14 -40 22 0 29 48 -12 130 -112z
m1380 28 c0 -18 2 -18 10 -6 8 11 9 8 4 -13 -4 -20 -3 -27 6 -25 7 2 14 -2 17
-8 2 -6 -7 -14 -21 -16 -22 -4 -24 -1 -30 44 -4 26 -9 56 -12 66 -5 14 -3 14
10 -2 9 -11 16 -29 16 -40z m-2595 -129 c38 -32 96 -72 129 -90 97 -52 144
-133 170 -295 l13 -83 -41 39 c-74 69 -70 69 -113 20 -21 -24 -77 -81 -124
-128 -48 -47 -105 -112 -127 -145 -82 -121 -98 -132 -92 -67 1 16 -4 22 -19
22 -14 0 -19 5 -16 20 2 11 -2 20 -8 20 -7 0 6 11 28 25 22 13 35 25 28 25 -7
0 -10 7 -7 15 8 20 -10 19 -44 -2 -26 -17 -27 -17 -12 1 14 18 14 19 -7 8 -29
-16 -38 -15 -24 2 9 11 6 12 -16 9 -27 -5 -27 -5 10 27 20 17 35 36 32 41 -4
5 -2 9 3 9 5 0 22 12 38 26 l29 26 -32 -16 c-18 -9 -35 -15 -37 -14 -3 2 -12
-6 -20 -17 -9 -11 -16 -16 -16 -11 0 13 60 86 70 83 4 -1 9 3 10 8 3 15 21 35
33 35 6 0 2 -7 -9 -15 -10 -8 -15 -15 -10 -15 16 0 106 78 94 82 -7 3 -8 9 -3
18 6 10 11 9 22 -5 7 -11 13 -14 13 -9 0 6 -5 15 -10 20 -7 7 -2 15 15 24 14
7 25 17 25 22 0 9 -96 -57 -137 -95 -12 -10 -26 -17 -31 -13 -13 8 -84 -47
-117 -90 -36 -47 -45 -35 -11 14 27 40 42 54 114 111 39 30 41 34 26 46 -16
11 -15 14 10 30 18 12 23 21 16 25 -13 8 -9 12 44 41 33 17 50 47 22 36 -24
-10 -19 -2 12 19 26 17 26 17 12 -1 -14 -17 -13 -17 10 -10 14 4 31 13 38 20
11 10 11 13 -3 19 -10 4 -14 2 -9 -6 5 -8 0 -9 -14 -5 -12 4 -32 10 -44 14
-16 5 -19 3 -13 -7 5 -9 4 -11 -3 -6 -6 4 -22 1 -34 -5 -21 -11 -22 -11 -9 4
15 19 1 23 -17 5 -7 -7 -13 -9 -13 -5 -1 4 -2 13 -3 20 -1 6 -7 11 -14 10 -7
-2 -12 4 -12 12 0 8 5 15 11 15 6 0 9 6 6 13 -2 6 -10 11 -17 9 -8 -2 -11 4
-7 17 6 25 -19 36 -32 13 -5 -9 -13 -13 -17 -9 -5 5 -3 12 4 16 7 4 10 15 6
24 -4 10 0 19 8 22 8 3 25 20 38 38 21 28 21 30 3 14 -13 -11 -23 -14 -27 -8
-4 5 -2 12 4 16 6 4 8 10 5 14 -2 5 7 7 21 5 18 -2 24 2 20 11 -5 14 22 14 44
0 6 -3 10 -2 10 4 0 5 -10 13 -22 17 -22 7 -22 7 -4 14 16 5 26 -3 50 -39 17
-25 62 -72 101 -104z m385 109 c0 -11 -19 -15 -25 -6 -3 5 1 10 9 10 9 0 16
-2 16 -4z m2051 -37 c-6 -16 -10 -18 -10 -7 -1 22 12 55 16 42 2 -6 -1 -22 -6
-35z m-1301 -81 c0 -5 -5 -8 -11 -8 -5 0 -7 5 -4 10 3 6 -1 10 -9 10 -9 0 -16
5 -16 10 0 6 -12 15 -26 21 -15 5 -24 12 -21 15 3 3 2 18 -4 33 -7 20 3 13 41
-29 27 -30 50 -58 50 -62z m1227 90 c-3 -8 -6 -5 -6 6 -1 11 2 17 5 13 3 -3 4
-12 1 -19z m107 -98 c-4 -13 -6 -13 -15 0 -8 13 -9 12 -7 -2 2 -9 0 -16 -5
-15 -11 3 -38 -52 -47 -98 l-8 -40 -1 36 c-1 21 12 68 28 105 16 38 32 85 37
104 8 35 8 35 16 -20 4 -30 5 -62 2 -70z m-2694 61 c0 -9 -24 -21 -43 -21 -6
0 -2 7 9 15 22 17 34 19 34 6z m2470 5 c0 -3 -4 -8 -10 -11 -5 -3 -10 -1 -10
4 0 6 5 11 10 11 6 0 10 -2 10 -4z m-3195 -98 c50 -51 106 -102 125 -113 49
-29 72 -75 77 -153 4 -74 -7 -107 -29 -83 -10 10 -10 12 0 7 20 -12 14 4 -10
25 -13 10 -17 18 -10 19 6 0 12 -4 12 -10 0 -5 7 -7 15 -4 14 6 13 8 -2 21
-11 9 -12 12 -3 8 8 -4 6 0 -4 9 -10 8 -23 13 -27 10 -5 -3 -9 0 -9 5 0 6 -3
10 -7 9 -15 -3 -63 14 -63 22 0 12 25 6 44 -9 13 -11 16 -11 16 0 0 11 2 11
10 -1 8 -13 10 -13 10 1 0 9 -7 22 -15 29 -9 7 -14 19 -11 27 3 8 1 11 -4 8
-6 -3 -13 0 -16 9 -3 8 -11 13 -18 10 -7 -3 -35 16 -62 42 -27 25 -40 40 -29
33 20 -13 20 -13 1 8 -10 13 -24 20 -30 16 -7 -4 -6 -1 1 7 9 10 7 23 -14 59
-14 25 -32 54 -41 64 -8 9 -11 17 -6 17 5 0 50 -42 99 -92z m-1810 63 c-3 -6
-11 -11 -17 -11 -6 0 -6 6 2 15 14 17 26 13 15 -4z m5405 4 c-7 -8 -17 -15
-22 -15 -6 0 -5 7 2 15 7 8 17 15 22 15 6 0 5 -7 -2 -15z m11 -53 c-5 -10 -8
-28 -5 -39 11 -41 -42 -117 -93 -134 -57 -18 -75 13 -20 36 18 7 47 34 65 58
31 44 42 74 22 62 -16 -10 -7 16 15 43 16 18 21 20 23 8 2 -8 -1 -23 -7 -34z
m-5147 11 c-4 -16 -13 -35 -20 -44 -8 -9 -11 -18 -8 -22 3 -3 1 -29 -6 -57
-11 -46 -15 -51 -34 -46 -11 3 -24 6 -28 6 -18 0 -6 20 12 20 11 0 20 4 20 10
0 5 -7 7 -15 4 -33 -13 -5 50 55 124 31 38 32 38 24 5z m4986 -39 c-7 -20 -25
-50 -40 -67 -15 -18 -30 -41 -33 -52 -4 -11 -5 4 -3 32 3 45 9 59 42 95 43 48
51 46 34 -8z m120 52 c0 -3 -4 -8 -10 -11 -5 -3 -10 -1 -10 4 0 6 5 11 10 11
6 0 10 -2 10 -4z m-3885 -17 c11 -17 -1 -21 -15 -4 -8 9 -8 15 -2 15 6 0 14
-5 17 -11z m1739 -38 c31 -34 3 -24 -30 10 -21 23 -23 29 -9 21 11 -5 29 -20
39 -31z m729 -50 c21 -39 36 -71 33 -71 -6 0 -56 74 -75 113 -8 15 -18 27 -23
27 -4 0 -8 5 -8 10 0 27 38 -15 73 -79z m-342 21 c-13 -4 -71 35 -71 49 0 5
19 -3 41 -18 23 -15 36 -29 30 -31z m-1856 28 c10 -11 16 -20 13 -20 -3 0 -13
9 -23 20 -10 11 -16 20 -13 20 3 0 13 -9 23 -20z m3348 -72 l46 -67 -8 -78
c-7 -75 -8 -76 -16 -38 -4 22 -14 58 -22 79 l-14 40 26 -24 c40 -37 29 -9 -20
54 -26 34 -45 69 -45 84 0 30 -3 33 53 -50z m220 40 c-4 -7 -8 -16 -8 -20 0
-11 -15 -22 -15 -10 0 19 12 42 22 42 5 0 6 -6 1 -12z m-3818 -8 c3 -5 1 -10
-4 -10 -6 0 -11 5 -11 10 0 6 2 10 4 10 3 0 8 -4 11 -10z m3455 -10 c0 -5 -5
-10 -11 -10 -5 0 -7 5 -4 10 3 6 8 10 11 10 2 0 4 -4 4 -10z m-1034 -15 c16
-12 16 -14 3 -15 -9 0 -22 7 -29 15 -16 19 0 19 26 0z m505 -32 c-14 -53 -60
-121 -134 -202 -34 -37 -79 -95 -99 -127 -48 -77 -168 -206 -242 -261 -32 -24
-77 -64 -98 -88 -22 -25 -52 -54 -68 -65 -27 -19 -32 -20 -57 -6 l-28 15 25 1
c51 1 53 17 4 25 -63 9 -84 21 -84 46 0 25 93 119 117 119 17 -1 16 -2 -2 -17
-16 -13 -17 -15 -2 -10 19 7 22 -9 8 -33 -19 -28 0 -28 29 2 34 34 41 51 9 22
-22 -19 -22 -19 -10 4 10 19 25 28 34 20 1 -2 18 7 38 20 20 12 39 19 42 15 4
-3 7 2 7 11 0 12 5 16 16 12 18 -7 49 8 78 37 l21 21 -27 -17 c-16 -10 -28
-14 -28 -10 0 5 -5 0 -11 -9 -5 -10 -15 -18 -21 -18 -6 0 -3 9 7 20 10 11 21
17 25 15 4 -3 13 2 20 10 7 8 9 15 5 15 -4 0 -2 7 5 15 11 13 10 15 -6 9 -17
-5 -17 -4 -2 6 10 6 39 13 65 15 26 3 51 9 55 13 4 4 -10 6 -32 4 -25 -3 -40
0 -40 7 0 11 13 15 37 12 6 -1 14 3 18 9 4 6 -8 10 -30 10 -43 0 -38 16 8 29
25 7 27 9 10 10 -33 1 -28 18 7 26 16 4 33 11 36 17 4 7 2 8 -4 4 -7 -4 -12
-3 -12 3 0 5 5 13 10 16 6 4 8 10 5 15 -3 5 -1 11 5 15 6 4 21 28 35 55 29 57
61 83 168 136 43 21 81 42 84 47 11 19 14 -3 4 -40z m-462 -27 c7 -9 17 -13
22 -10 5 3 8 1 7 -4 -2 -6 21 -40 49 -76 l53 -66 -52 -68 c-29 -37 -53 -69
-55 -71 -3 -5 -13 7 -55 63 l-21 28 24 -12 c22 -12 21 -10 -5 19 -17 17 -24
31 -17 31 7 0 9 5 5 12 -5 7 -2 9 9 5 11 -4 14 -2 10 8 -3 8 -9 12 -14 9 -5
-3 -9 3 -9 13 0 11 -4 23 -10 29 -11 11 60 11 79 0 6 -4 11 -3 11 2 0 5 -21
24 -47 43 -73 52 -93 75 -60 70 4 0 7 4 7 9 0 13 51 -13 69 -34z m1261 -3 c-1
-28 -69 -170 -70 -145 0 7 11 40 25 74 14 34 25 70 25 80 0 10 5 18 10 18 6 0
10 -12 10 -27z m137 -37 c-3 -8 -19 -17 -36 -21 -18 -4 -31 -13 -31 -21 0 -9
-5 -12 -10 -9 -21 13 -4 40 35 60 40 20 52 17 42 -9z m-2107 14 c0 -5 -2 -10
-4 -10 -3 0 -8 5 -11 10 -3 6 -1 10 4 10 6 0 11 -4 11 -10z m820 -4 c0 -3 -4
-8 -10 -11 -5 -3 -10 -1 -10 4 0 6 5 11 10 11 6 0 10 -2 10 -4z m-2528 -34
c26 -12 57 -22 68 -22 12 0 19 -4 15 -9 -6 -11 28 -33 48 -30 32 4 50 -4 87
-37 22 -20 39 -39 36 -41 -2 -3 13 -20 34 -39 52 -47 95 -117 124 -201 22 -63
30 -102 40 -200 2 -18 15 -47 28 -65 14 -18 44 -64 67 -101 55 -91 288 -379
256 -317 -13 24 -105 150 -152 209 l-44 54 29 31 c17 17 53 66 80 109 60 92
70 138 53 250 -7 43 -10 81 -7 84 10 10 101 -67 172 -145 72 -79 146 -181 158
-217 7 -25 -48 -120 -65 -109 -11 6 -99 140 -99 149 0 3 12 -2 28 -12 16 -11
7 2 -23 33 -27 27 -52 49 -54 47 -6 -4 57 -123 93 -173 45 -63 47 -71 25 -119
l-19 -43 -38 49 c-39 48 -82 91 -82 81 0 -3 23 -34 50 -68 28 -34 50 -68 50
-75 0 -6 -13 -30 -29 -53 -29 -39 -51 -57 -180 -150 l-61 -43 -37 29 c-21 16
-63 38 -93 47 -89 28 -121 49 -194 124 -52 54 -78 73 -110 81 -160 40 -202 56
-287 110 -49 32 -106 61 -127 65 -20 3 -86 18 -146 32 -122 29 -148 46 -211
138 -37 53 -98 95 -137 95 -9 0 -38 7 -66 16 -41 14 -64 31 -127 101 -43 46
-76 86 -74 88 31 29 137 107 154 111 13 3 48 -8 92 -31 38 -19 114 -47 169
-60 54 -14 109 -30 120 -36 12 -6 56 -61 97 -123 75 -111 220 -277 261 -298
14 -7 10 1 -13 26 -19 19 -32 39 -28 42 3 4 -11 19 -32 34 -50 36 -86 86 -70
96 8 5 9 3 4 -6 -6 -9 -4 -11 5 -5 9 5 11 4 6 -4 -4 -6 -4 -11 1 -10 20 3 27
-2 13 -11 -9 -6 -10 -10 -3 -10 27 0 21 20 -15 51 -22 20 -29 30 -17 26 l20
-7 -20 16 c-11 8 -19 20 -17 26 1 6 -5 16 -15 24 -10 7 -13 14 -8 14 6 0 4 4
-3 9 -18 11 2 52 59 117 22 26 48 63 57 81 l16 34 82 -85 c60 -62 99 -93 146
-115 34 -17 78 -39 97 -50 19 -11 47 -25 63 -30 16 -6 27 -15 24 -20 -9 -15
-76 5 -105 31 -14 13 -35 31 -46 39 -19 13 -19 13 -5 -6 27 -38 115 -140 135
-157 26 -22 72 -44 110 -51 23 -5 20 -2 -15 15 -25 11 -62 40 -83 64 -40 45
-39 45 26 29 24 -6 26 -5 20 11 -4 11 -14 25 -22 32 -24 19 -88 52 -93 47 -2
-3 -20 9 -39 25 l-34 30 37 -15 c47 -19 54 -19 38 0 -7 8 -16 12 -21 9 -5 -3
-6 1 -4 8 6 15 -71 65 -82 54 -4 -3 -1 -6 5 -6 7 0 12 -7 12 -15 0 -20 -6 -19
-43 7 -54 37 -63 62 -19 53 24 -5 25 -4 8 7 -30 21 -62 50 -46 42 8 -4 4 5
-10 20 -21 24 -22 26 -5 20 16 -6 14 0 -10 27 -17 19 -20 26 -7 15 23 -20 31
-9 10 12 -9 9 -9 12 1 12 10 0 11 3 2 14 -9 11 -9 15 1 20 7 3 3 3 -9 0 -15
-3 -23 -1 -23 8 0 7 -13 19 -29 26 -16 7 -32 20 -35 28 -3 8 -2 13 2 11 4 -2
28 -13 54 -25z m3516 11 c5 -10 6 -29 2 -43 l-7 -25 -12 29 c-17 42 -2 76 17
39z m-1887 -30 c13 -16 12 -17 -3 -4 -17 13 -22 21 -14 21 2 0 10 -8 17 -17z
m786 11 c-3 -3 -12 -4 -19 -1 -8 3 -5 6 6 6 11 1 17 -2 13 -5z m1030 -16 c-3
-8 -6 -5 -6 6 -1 11 2 17 5 13 3 -3 4 -12 1 -19z m33 1 c0 -6 8 -23 19 -37 10
-15 22 -46 26 -70 17 -103 13 -112 -17 -39 -9 23 -17 36 -17 29 -1 -7 4 -23
10 -35 l11 -22 -21 20 c-15 15 -22 38 -27 93 -5 51 -4 72 5 72 6 0 11 -5 11
-11z m-2949 -61 c10 -52 12 -124 2 -115 -3 4 -8 36 -9 72 -2 35 -8 75 -15 87
-9 18 -9 21 1 11 7 -6 16 -31 21 -55z m3254 20 c-4 -13 -13 -28 -21 -34 -7 -6
-11 -14 -7 -18 4 -4 -1 -4 -11 0 -14 5 -17 4 -11 -5 5 -10 2 -11 -13 -7 -11 4
-23 2 -26 -3 -10 -16 8 -20 47 -11 37 8 107 -5 107 -20 0 -4 -22 -5 -49 -2
-35 3 -61 -1 -97 -17 l-48 -22 22 24 c17 18 19 26 10 35 -10 10 -10 17 0 32
20 33 13 47 -8 15 -16 -25 -20 -27 -26 -12 -10 26 23 57 56 53 16 -2 34 1 42
5 25 16 40 10 33 -13z m-302 -138 c23 -27 27 -40 22 -64 -3 -17 -9 -51 -13
-76 l-8 -45 -9 50 c-5 28 -10 57 -10 65 -1 8 -9 30 -19 47 -17 35 -20 75 -8
138 7 40 7 40 12 -21 4 -47 11 -68 33 -94z m-2463 136 c0 -2 -7 -7 -16 -10 -8
-3 -12 -2 -9 4 6 10 25 14 25 6z m2536 -51 c7 -19 14 -65 14 -103 0 -76 -17
-143 -31 -121 -4 8 -4 16 1 19 18 11 22 142 7 193 -18 55 -12 62 9 12z m-2446
11 c0 -3 -13 -14 -30 -26 -16 -12 -30 -18 -30 -13 0 5 12 16 28 25 30 19 32
20 32 14z m2530 -36 c0 -16 -9 -44 -20 -62 -18 -30 -20 -31 -20 -10 0 38 22
112 31 106 5 -3 9 -18 9 -34z m-220 -47 c0 -48 -3 -64 -10 -53 -16 24 -11 120
6 120 2 0 4 -30 4 -67z m-2030 11 c-6 -15 -32 -53 -58 -83 -45 -53 -42 -61 6
-18 32 30 27 12 -13 -44 -19 -26 -28 -46 -20 -42 18 6 19 -8 3 -27 -7 -8 4 1
25 19 l37 35 0 -26 c0 -31 -21 -63 -132 -199 -96 -117 -119 -140 -125 -123 -2
7 -20 38 -39 70 l-35 58 55 78 c46 67 295 340 304 333 1 -1 -2 -15 -8 -31z
m226 -156 c115 -116 162 -171 193 -226 23 -41 41 -78 41 -84 0 -6 -12 -8 -27
-5 -23 4 -37 -6 -102 -70 -41 -41 -85 -79 -99 -84 -44 -17 -89 -10 -119 17
-15 15 -20 21 -10 14 16 -12 17 -11 7 16 -6 16 -17 36 -24 44 -7 8 -12 22 -11
30 1 8 -15 33 -34 54 -20 21 -29 35 -21 31 8 -4 2 6 -14 23 -39 42 -30 48 20
15 21 -15 33 -19 25 -10 -7 9 -10 17 -5 17 5 1 -4 12 -21 26 -16 15 -22 24
-13 21 13 -5 16 -1 13 16 -4 21 -4 21 10 3 12 -16 15 -17 15 -4 0 8 -7 21 -15
28 -9 7 -13 15 -10 18 3 3 -3 14 -12 25 -17 20 -17 20 1 13 18 -6 19 -6 4 11
-10 11 -13 25 -8 38 4 11 5 32 4 48 -3 25 -2 26 16 17 11 -6 20 -7 20 -3 0 4
13 -14 30 -40 16 -26 32 -47 35 -47 4 0 -3 13 -14 29 -12 16 -21 34 -21 40 0
6 -12 29 -26 50 -14 22 -28 59 -31 82 l-6 43 29 -22 c16 -11 97 -90 180 -174z
m-929 158 c12 -11 58 -175 51 -181 -2 -2 -21 10 -42 26 -22 16 -35 29 -29 29
6 0 16 -7 23 -15 7 -9 15 -13 18 -10 4 3 -13 23 -37 45 -23 22 -40 44 -36 50
4 6 1 9 -6 8 -6 -2 -14 3 -17 11 -3 10 0 12 12 8 11 -4 15 -3 11 4 -4 6 -19
15 -33 21 -25 10 -26 11 -7 19 24 9 75 2 92 -15z m1433 14 c8 -5 12 -11 10
-14 -3 -2 -14 2 -24 10 -22 15 -10 19 14 4z m-1165 -47 c-19 -21 -35 -43 -35
-50 0 -6 -4 -15 -10 -18 -6 -4 -7 1 -3 11 5 13 3 15 -8 9 -16 -9 25 39 56 67
35 31 35 19 0 -19z m1205 27 c0 -5 -2 -10 -4 -10 -3 0 -8 5 -11 10 -3 6 -1 10
4 10 6 0 11 -4 11 -10z m1656 1 c-4 -5 -3 -11 1 -14 5 -2 3 -3 -3 -1 -6 1 -15
-1 -20 -6 -5 -4 -34 -11 -64 -15 -54 -7 -55 -6 -31 11 35 25 129 45 117 25z
m-3289 -73 c-3 -7 -5 -2 -5 12 0 14 2 19 5 13 2 -7 2 -19 0 -25z m3143 1 c-29
-19 -70 -39 -70 -35 0 13 42 42 62 43 18 2 20 0 8 -8z m-2239 -21 c11 -21 11
-22 -4 -9 -10 7 -17 17 -17 22 0 15 9 10 21 -13z m-1243 -43 c-3 -3 -9 2 -12
12 -6 14 -5 15 5 6 7 -7 10 -15 7 -18z m1162 -19 c0 -2 -8 -10 -17 -17 -16
-13 -17 -12 -4 4 13 16 21 21 21 13z m-673 -13 c-8 -8 11 -33 25 -33 6 0 4 8
-3 18 -13 15 -12 16 4 3 12 -10 14 -17 7 -26 -7 -9 -5 -16 7 -26 16 -13 17
-12 5 2 -10 14 -10 18 3 23 9 3 13 2 10 -3 -3 -5 -1 -12 5 -16 6 -4 8 -11 5
-16 -4 -5 -1 -9 4 -9 6 0 11 -4 11 -10 0 -5 -16 0 -35 11 -19 12 -35 27 -35
34 0 8 -9 20 -21 28 -15 11 -17 16 -7 20 19 8 22 8 15 0z m2758 -1 c20 -13 52
-67 52 -84 0 -25 -6 -22 -19 10 l-11 27 -7 -30 -7 -30 -21 48 c-25 56 -19 82
13 59z m-2417 -38 c-7 -7 -78 -34 -78 -30 0 9 65 44 73 39 4 -3 7 -7 5 -9z
m2653 -17 c-1 -4 -3 -7 -6 -7 -3 1 -13 -6 -21 -15 -21 -21 -40 -19 -23 3 24
30 52 41 50 19z m-3021 -4 c8 -4 17 -7 20 -7 24 -4 72 -57 76 -84 6 -38 -6
-42 -22 -7 -9 18 -9 25 0 28 14 5 -32 30 -59 31 -11 1 -20 7 -20 15 0 8 -6 16
-14 19 -9 3 -11 0 -5 -9 7 -12 5 -12 -9 0 -9 7 -17 14 -17 16 0 4 36 3 50 -2z
m-1440 -44 c0 -18 -18 -9 -23 12 -4 16 -3 18 9 8 8 -6 14 -15 14 -20z m4160
-22 c0 -6 12 -21 27 -32 29 -24 25 -46 -7 -38 -24 6 -80 80 -80 106 0 17 2 17
30 -3 17 -12 30 -27 30 -33z m137 11 c-3 -7 -5 -2 -5 12 0 14 2 19 5 13 2 -7
2 -19 0 -25z m-2834 -8 c4 0 5 5 1 11 -4 8 0 8 15 0 25 -14 28 -26 4 -17 -15
6 -14 4 2 -14 18 -20 18 -20 -3 -17 -21 3 -54 27 -38 27 5 0 -2 9 -15 21 l-24
21 25 -16 c13 -9 28 -16 33 -16z m2998 -4 c12 7 11 -3 -2 -27 -5 -11 -31 -33
-57 -49 -26 -16 -42 -30 -37 -30 6 0 27 11 48 25 44 31 48 18 8 -27 -23 -27
-108 -69 -143 -72 -3 -1 -10 -5 -15 -10 -5 -5 -3 -6 5 -2 6 4 12 3 12 -3 0 -5
-8 -9 -19 -8 -13 1 -17 7 -13 22 7 29 28 50 83 86 47 30 66 55 33 42 -11 -4
-15 -2 -12 7 6 19 92 64 96 50 2 -5 8 -8 13 -4z m-4241 -141 c0 -21 -61 41
-78 80 -10 22 -4 18 33 -18 25 -25 45 -53 45 -62z m4120 91 c0 -2 -8 -10 -17
-17 -16 -13 -17 -12 -4 4 13 16 21 21 21 13z m-421 -67 c7 -34 15 -59 17 -56
3 3 1 22 -5 44 -6 21 -11 46 -11 56 0 17 1 17 25 0 19 -14 25 -27 25 -58 0
-22 7 -49 15 -59 15 -19 15 -19 15 1 0 12 -4 25 -10 28 -5 3 -10 17 -10 31 0
30 27 30 44 0 6 -11 21 -29 34 -40 33 -30 74 -151 69 -201 l-5 -40 15 34 c15
36 10 106 -8 96 -5 -4 -9 -3 -9 2 -1 4 -5 27 -9 51 -5 23 -7 42 -6 42 1 0 12
-9 24 -19 24 -21 41 -69 41 -114 0 -30 -38 -113 -47 -103 -3 3 -9 26 -14 53
-10 51 -29 83 -22 36 4 -26 3 -26 -17 9 -11 20 -22 52 -24 70 -3 18 -9 44 -15
58 l-10 25 -2 -30 c-5 -55 1 -86 21 -113 24 -34 35 -78 21 -86 -6 -4 -11 -2
-11 5 0 7 -11 26 -24 43 -23 31 -56 90 -56 101 0 3 4 4 10 0 5 -3 5 8 -2 26
-8 23 -13 27 -19 17 -7 -10 -9 -9 -9 5 0 17 -11 22 -23 10 -4 -3 -3 -11 2 -17
4 -6 21 -47 36 -91 36 -104 58 -146 36 -67 -5 17 -8 32 -6 32 12 0 45 -73 45
-98 0 -31 0 -31 -62 35 -58 63 -60 67 -42 81 12 9 13 13 4 10 -24 -8 -41 48
-47 155 -7 111 6 129 26 36z m-1074 -56 c-24 -105 -36 -127 -114 -201 -81 -76
-157 -117 -192 -103 -21 8 -12 16 14 12 4 0 7 3 7 9 0 5 -4 10 -9 10 -5 0 -11
9 -14 21 -3 12 -10 18 -16 14 -6 -3 -11 -2 -11 3 0 5 20 7 44 5 42 -5 47 -3
89 38 24 24 55 51 68 60 14 9 37 41 53 70 42 78 88 150 93 145 3 -2 -3 -40
-12 -83z m1400 25 c-6 -18 -17 -44 -23 -58 -18 -41 -14 4 4 50 19 47 37 55 19
8z m-1486 -25 c-8 -10 -20 -22 -27 -26 -7 -5 -9 -14 -6 -20 4 -7 4 -9 -1 -5
-4 4 -14 3 -21 -2 -6 -6 -16 -10 -20 -9 -5 1 -16 -1 -24 -4 -8 -3 -34 -11 -57
-17 -24 -6 -43 -13 -43 -16 0 -2 12 -1 28 2 38 10 20 -6 -20 -17 -32 -9 -32
-9 6 -4 21 2 47 12 57 21 11 10 22 15 25 12 10 -11 -38 -47 -83 -62 -32 -11
-51 -12 -72 -5 l-28 10 51 53 c48 49 52 51 76 39 33 -17 55 -16 70 1 6 8 17
13 24 10 6 -2 22 9 34 26 13 16 28 30 34 30 6 0 5 -7 -3 -17z m1602 -62 c-12
-28 -19 -51 -16 -51 9 0 -80 -77 -102 -89 -42 -21 -37 -11 21 48 39 39 57 65
53 75 -3 8 -1 18 5 22 7 5 8 2 3 -6 -5 -9 -4 -11 4 -6 9 6 9 11 1 21 -9 11 -5
17 17 28 15 9 29 14 31 12 1 -1 -6 -25 -17 -54z m-63 -35 c-2 -1 -20 -16 -40
-35 -21 -19 -40 -32 -44 -29 -8 9 13 48 44 81 26 27 26 28 34 6 5 -12 7 -22 6
-23z m-1614 13 c-3 -5 -10 -7 -15 -3 -5 3 -7 10 -3 15 3 5 10 7 15 3 5 -3 7
-10 3 -15z m1765 -8 c-63 -85 -78 -111 -69 -111 6 0 8 -5 5 -11 -4 -6 -14 -8
-22 -5 -11 5 -14 1 -10 -13 3 -12 -3 -27 -13 -36 -10 -9 -16 -23 -14 -30 3 -7
-7 -23 -23 -35 -21 -16 -38 -21 -70 -18 -24 2 -43 0 -43 -4 0 -15 -43 -8 -56
10 -18 23 -17 32 4 33 15 0 14 1 -2 8 -16 6 -7 14 53 44 41 20 82 37 92 37 10
0 21 5 24 10 3 6 1 10 -6 10 -7 0 -5 8 6 20 10 11 23 20 29 20 16 0 89 51 82
57 -9 9 14 33 31 33 13 0 13 -3 2 -19z m-259 -16 c0 -14 -2 -25 -4 -25 -2 0
-6 11 -8 25 -3 14 -1 25 3 25 5 0 9 -11 9 -25z m-3572 -18 c16 -15 22 -17 22
-7 0 22 43 -26 45 -50 1 -11 -2 -20 -7 -20 -5 0 -6 -4 -3 -10 3 -5 14 -10 23
-10 10 0 13 3 7 8 -5 4 -11 14 -13 22 -2 10 6 6 24 -10 27 -25 25 -13 -5 25
-8 11 3 3 25 -17 22 -21 46 -38 53 -38 7 0 10 -7 7 -17 -3 -10 3 -29 14 -43
12 -15 20 -20 20 -11 0 8 -7 23 -17 33 -9 10 -11 18 -5 18 15 0 41 -51 34 -69
-2 -8 0 -11 5 -8 5 4 20 -16 32 -43 13 -28 26 -50 31 -50 4 0 11 -7 14 -16 8
-21 -82 30 -132 74 -59 53 -84 63 -136 53 -42 -8 -47 -6 -73 22 l-28 31 27
-17 c41 -26 43 -21 9 18 -17 20 -31 37 -31 38 0 9 47 4 60 -5 8 -7 0 2 -17 20
-49 46 -40 55 12 13 18 -15 19 -15 7 0 -6 9 -8 20 -4 24 4 5 2 5 -4 2 -7 -4
-18 1 -25 10 -12 15 -12 16 5 9 18 -6 19 -5 4 11 -8 10 -19 24 -23 32 -10 18
10 7 43 -22z m-258 13 c11 -6 24 -20 31 -31 9 -18 8 -19 -8 -11 -21 12 -59 52
-49 52 4 0 16 -5 26 -10z m4050 4 c0 -2 -10 -8 -21 -15 -13 -6 -19 -7 -15 -1
3 6 0 12 -6 15 -7 2 -1 4 15 4 15 0 27 -1 27 -3z m-4880 -146 c13 -22 20 -27
20 -15 0 9 5 17 11 17 24 0 49 -22 49 -43 0 -17 2 -19 9 -8 25 40 109 -81 97
-140 -4 -20 2 -44 16 -75 16 -32 20 -49 13 -60 -18 -28 -30 -20 -36 26 -3 25
-7 36 -7 26 -4 -42 -17 -1 -28 87 -7 55 -12 74 -12 47 0 -110 -2 -134 -11
-125 -6 6 -13 46 -17 90 -3 44 -10 87 -15 95 -6 11 -8 11 -9 2 0 -7 -12 0 -26
15 -22 24 -24 25 -14 5 20 -41 4 -48 -20 -9 -12 21 -25 36 -28 33 -3 -3 1 -12
8 -21 7 -9 10 -18 8 -21 -9 -8 -48 61 -48 85 0 31 17 26 40 -11z m4330 -56 c0
-35 -8 -74 -20 -101 -11 -24 -20 -51 -20 -62 0 -32 -19 -30 -25 3 -5 24 1 48
19 88 15 32 26 73 26 98 0 26 4 41 10 37 6 -3 10 -32 10 -63z m-3839 32 c20
-24 83 -53 122 -56 21 -1 56 8 85 21 l50 24 108 -28 c99 -25 119 -27 225 -22
115 7 116 6 140 -19 54 -58 303 -188 412 -215 26 -6 69 -9 95 -6 42 5 56 0
140 -44 51 -27 102 -49 113 -49 11 0 55 -12 97 -27 66 -23 94 -27 197 -28 169
-1 175 -8 63 -74 l-91 -54 -59 32 c-43 24 -73 33 -117 35 -44 3 -74 12 -120
37 l-61 34 -63 -34 c-59 -32 -68 -34 -133 -29 -78 6 -124 26 -197 87 -47 40
-50 40 -106 34 -57 -5 -59 -5 -100 32 l-42 38 -27 -25 c-64 -60 -123 -68 -220
-32 -65 24 -78 26 -125 16 -77 -15 -102 -6 -178 65 l-68 65 -63 -36 c-69 -38
-161 -66 -220 -66 -31 0 -40 5 -53 30 -8 16 -15 47 -15 70 0 52 -33 117 -71
138 -16 9 -29 22 -29 27 1 6 23 20 50 33 47 22 50 22 75 6 32 -21 97 -14 134
15 32 25 35 25 52 5z m3869 -44 c0 -20 -2 -22 -10 -10 -5 8 -10 26 -10 40 0
20 2 22 10 10 5 -8 10 -26 10 -40z m67 -107 c4 -46 2 -73 -5 -77 -7 -4 -13 8
-17 31 -11 63 -13 61 -14 -7 -1 -58 -5 -70 -32 -103 -17 -20 -40 -42 -51 -48
-20 -11 -19 -8 5 35 14 25 22 46 18 46 -4 0 -14 -12 -22 -27 l-14 -28 -3 36
c-2 20 6 57 17 85 11 27 20 41 20 32 1 -10 6 -18 12 -18 11 0 2 43 -11 48 -4
2 -3 18 2 37 7 22 16 31 24 28 10 -4 14 3 14 23 l0 29 25 -26 c21 -21 27 -38
32 -96z m-4419 70 c28 -25 82 -103 82 -120 0 -22 -18 -6 -46 40 -26 42 -51 67
-66 67 -5 0 0 -9 11 -21 12 -13 18 -32 16 -48 -2 -17 4 -32 19 -43 11 -10 16
-18 9 -18 -7 0 -10 -6 -7 -14 3 -8 12 -12 20 -9 23 8 54 -26 52 -57 -1 -14 8
-40 19 -56 l22 -31 -52 18 c-29 10 -59 18 -69 19 -23 0 -68 57 -68 87 0 25 1
25 25 9 38 -25 30 -11 -19 34 -24 22 -47 53 -52 68 -9 34 -9 33 -19 56 -11 24
9 36 61 36 26 0 50 -7 62 -17z m1501 -28 c14 -1 20 3 17 11 -6 17 33 6 64 -18
22 -18 25 -18 30 -2 5 13 17 4 60 -44 52 -59 54 -60 70 -42 16 19 17 19 30 -1
8 -10 19 -18 25 -16 5 2 16 -3 23 -12 8 -9 11 -10 7 -3 -4 7 0 12 9 12 9 0 16
-8 16 -17 0 -13 3 -14 12 -5 9 9 16 8 30 -5 10 -9 18 -13 18 -9 0 3 17 -2 38
-12 20 -11 50 -22 66 -26 16 -4 55 -27 86 -52 31 -24 80 -52 108 -63 29 -10
49 -21 45 -24 -14 -15 -76 -5 -176 28 -58 19 -114 35 -124 35 -10 0 -54 21
-98 47 -77 45 -83 47 -165 48 -78 1 -91 5 -159 41 -72 37 -158 110 -146 122 3
3 11 0 17 -6 15 -15 31 -16 22 0 -5 8 -2 9 9 5 14 -5 15 -1 10 26 l-6 32 20
-24 c11 -14 30 -25 42 -26z m46 35 c3 -5 1 -10 -4 -10 -6 0 -11 5 -11 10 0 6
2 10 4 10 3 0 8 -4 11 -10z m3025 -27 c0 -7 -4 -13 -10 -13 -5 0 -10 12 -10
28 0 21 2 24 10 12 5 -8 10 -21 10 -27z m-4344 -35 c19 -37 29 -124 20 -174
-10 -52 -26 -26 -26 43 0 42 -3 51 -15 47 -9 -4 -15 0 -15 7 -1 8 -2 37 -4 66
-4 59 13 63 40 11z m4289 23 c10 -33 -57 -151 -98 -172 -17 -10 -15 -4 10 27
17 22 36 59 43 84 19 74 21 80 30 80 5 0 11 -9 15 -19z m-62 -4 c3 -8 1 -20
-4 -28 -6 -10 -9 -7 -9 14 0 29 5 35 13 14z m131 -53 c4 -9 5 -18 4 -19 -10
-6 -101 -55 -104 -55 -2 0 6 16 17 35 31 52 71 71 83 39z m76 -50 c0 -3 -22
-34 -50 -69 -49 -62 -81 -81 -117 -69 -10 3 -6 -3 10 -13 34 -22 30 -35 -13
-49 -20 -7 -28 -13 -19 -16 8 -3 -7 -17 -41 -36 -30 -17 -62 -38 -71 -46 -20
-20 -39 -21 -39 -1 0 8 -12 17 -27 21 -16 3 -34 7 -40 10 -19 5 -16 -13 3 -20
9 -3 24 -6 35 -6 31 0 22 -25 -15 -42 -22 -11 -47 -15 -73 -11 -26 3 -50 0
-71 -11 -34 -18 -137 -23 -127 -6 3 6 31 10 62 10 31 0 54 3 51 6 -12 11 -138
6 -153 -6 -9 -8 -15 -8 -15 -2 0 11 6 14 80 32 25 6 74 26 110 45 36 18 79 36
95 39 34 8 177 85 157 86 -7 0 -40 -11 -74 -25 -34 -14 -63 -23 -65 -21 -6 5
69 54 117 75 25 11 83 45 130 76 65 42 93 55 122 55 21 0 38 -3 38 -6z m-3975
-75 c68 -70 100 -83 174 -68 53 10 63 9 135 -17 71 -25 81 -26 130 -15 30 7
67 24 87 40 l34 29 39 -35 c37 -34 41 -35 97 -30 56 5 60 4 101 -32 65 -56 92
-70 163 -86 75 -18 98 -14 179 28 l58 31 32 -18 c68 -41 92 -50 155 -55 65 -6
160 -47 144 -62 -29 -25 -212 -119 -233 -119 -14 0 -63 18 -109 39 -90 42
-103 42 -160 2 -14 -10 -51 -31 -81 -47 -46 -23 -66 -28 -120 -26 -162 5 -191
5 -279 -5 -59 -7 -123 -7 -175 -2 -74 8 -83 12 -109 42 -53 61 -62 70 -94 83
-18 8 -37 23 -43 34 -7 13 -18 19 -28 16 -21 -6 -38 7 -75 57 -15 20 -36 37
-46 37 -10 0 -26 9 -35 19 -12 13 -32 20 -60 21 -109 3 -109 3 -139 37 -22 25
-37 33 -62 33 -18 0 -38 7 -45 15 -11 13 -7 15 24 15 59 0 162 30 208 60 24
16 52 29 63 29 12 1 41 -20 70 -50z m3529 -3 c-19 -40 -39 -49 -28 -13 7 24
35 60 41 53 2 -2 -4 -20 -13 -40z m-355 8 c4 3 9 -9 10 -27 3 -54 4 -57 12
-57 4 0 5 19 2 42 -8 59 11 41 25 -24 9 -39 10 -68 2 -108 -12 -63 -19 -75
-94 -155 l-56 -60 20 49 c12 29 23 83 26 130 3 45 9 99 14 121 5 22 10 58 10
80 1 32 3 37 11 22 6 -9 14 -15 18 -13z m395 -11 c-12 -70 -59 -130 -136 -179
-56 -36 -55 -29 4 19 40 32 63 62 92 120 21 42 40 77 42 77 3 0 2 -17 -2 -37z
m-447 -30 c-3 -10 -5 -4 -5 12 0 17 2 24 5 18 2 -7 2 -21 0 -30z m-3663 -23
l17 -35 -21 24 c-11 13 -20 30 -20 39 0 19 3 15 24 -28z m150 -12 c-3 -5 0 -7
7 -6 18 4 41 -71 34 -110 -3 -18 -10 -30 -16 -27 -5 4 -9 -2 -9 -12 0 -35 -28
10 -44 69 -11 44 -12 65 -3 93 10 33 12 35 24 19 7 -9 10 -21 7 -26z m3488
-30 c1 -194 -6 -237 -48 -288 -31 -36 -51 -40 -28 -4 13 18 14 28 6 36 -8 8
-14 5 -21 -13 -10 -27 -80 -94 -88 -85 -3 3 11 24 31 47 20 24 36 47 36 52 0
16 32 77 40 77 5 0 6 -9 3 -20 -3 -11 -1 -20 4 -20 9 0 27 65 37 140 3 19 1
53 -4 74 -7 33 -6 42 8 53 9 7 18 13 20 13 2 0 3 -28 4 -62z m-91 -50 c-18
-40 -41 -84 -50 -98 -10 -14 -23 -44 -30 -68 -8 -28 -30 -62 -61 -94 l-49 -51
-61 6 c-33 4 -79 16 -102 28 -29 15 -51 19 -77 15 -120 -19 -117 -20 -187 13
-54 25 -77 31 -125 29 -49 -3 -62 1 -80 19 l-22 21 39 25 c22 13 82 47 134 75
135 73 99 63 -49 -13 -116 -59 -126 -62 -147 -48 -20 13 -26 13 -53 -1 -39
-20 -85 -20 -116 0 -32 21 -68 12 -113 -27 -19 -17 -50 -38 -68 -47 -32 -15
-38 -15 -82 1 -62 22 -89 21 -137 -4 -68 -37 -146 -59 -204 -59 l-55 0 84 48
c47 27 126 70 175 97 50 26 147 85 216 131 69 46 132 84 140 84 8 0 38 -9 67
-20 120 -46 247 -44 359 5 71 32 81 31 142 -6 64 -40 99 -39 201 2 86 35 97
35 186 -2 28 -11 37 -10 80 12 40 20 52 22 63 12 12 -10 9 -23 -18 -85z
m-3466 40 c29 -83 28 -85 -4 -48 -21 23 -31 45 -31 67 0 48 13 40 35 -19z
m3882 44 c18 -11 -108 -131 -183 -175 -7 -4 -5 18 5 64 18 77 22 82 103 103
65 18 60 17 75 8z m-297 -12 c0 -5 -2 -10 -4 -10 -3 0 -8 5 -11 10 -3 6 -1 10
4 10 6 0 11 -4 11 -10z m343 -3 c-31 -51 -78 -106 -83 -97 -4 6 -14 2 -26 -11
-10 -11 -28 -25 -39 -31 -11 -6 -2 5 20 23 21 19 44 34 49 34 5 0 12 7 15 16
8 22 54 79 64 79 4 0 4 -6 0 -13z m-4018 -52 c28 -20 64 -47 80 -61 l30 -26
-34 17 -35 18 19 -29 c12 -20 1 -13 -38 24 -31 28 -63 52 -71 52 -8 0 -28 12
-43 26 l-28 26 35 -6 c19 -4 58 -22 85 -41z m274 26 c11 -11 23 -36 27 -55 3
-20 10 -33 15 -31 4 3 7 -26 6 -64 -2 -77 -7 -79 -62 -21 -26 27 -30 39 -30
88 0 31 -4 67 -8 80 -7 18 -5 22 12 22 12 0 30 -9 40 -19z m3331 -51 c0 -54
-100 -226 -171 -295 l-52 -50 45 56 c25 31 53 79 62 105 10 27 24 60 31 74 22
38 42 82 55 118 17 44 30 40 30 -8z m-3670 -1 c25 -12 39 -23 33 -26 -19 -7
-114 27 -107 38 8 13 24 11 74 -12z m433 -6 c11 -11 61 -11 75 0 9 7 21 3 40
-15 15 -14 32 -24 39 -21 14 5 44 -37 36 -51 -3 -6 -2 -8 2 -3 5 4 18 -1 29
-12 12 -10 34 -25 51 -32 16 -8 34 -23 40 -34 5 -11 16 -20 23 -21 6 -1 19 -2
27 -2 8 -1 28 -20 44 -43 16 -22 50 -56 76 -75 35 -27 44 -40 40 -55 -4 -11
-2 -19 5 -19 6 0 8 5 4 13 -5 6 12 -5 36 -26 24 -20 67 -49 95 -63 37 -19 42
-24 20 -19 -47 10 -132 51 -178 87 l-42 32 30 -34 30 -33 -35 7 c-56 11 -105
39 -105 61 -1 26 -14 47 -26 40 -5 -4 -24 28 -43 69 -19 42 -40 76 -46 76 -6
0 -5 -9 4 -22 8 -13 24 -49 36 -80 11 -31 31 -69 43 -84 28 -36 12 -30 -83 31
-53 34 -70 49 -61 58 8 8 7 15 -3 26 -16 18 -66 134 -66 153 0 7 -9 24 -20 38
l-20 25 0 -23 c0 -13 6 -29 13 -37 15 -14 71 -164 64 -171 -6 -7 -71 18 -91
35 -10 9 -32 36 -48 60 -26 43 -41 34 -18 -10 7 -13 7 -19 1 -19 -17 0 -41 57
-41 97 0 21 -4 53 -9 71 -8 27 -7 32 8 32 10 0 21 -3 24 -7z m-457 -29 c27 -9
71 -27 98 -40 28 -13 57 -24 66 -24 18 0 105 -59 98 -66 -3 -2 -38 6 -79 17
-41 11 -99 25 -129 29 -91 15 -102 18 -134 47 -17 16 -32 29 -34 30 -2 1 -1 6
3 12 9 16 54 13 111 -5z m293 -92 c25 -21 63 -48 84 -61 53 -33 46 -37 -11 -6
-50 27 -144 104 -128 105 6 0 30 -17 55 -38z m-159 -23 c30 -10 47 -18 38 -19
-10 0 -18 -4 -18 -9 0 -4 26 -11 58 -15 78 -9 339 -88 400 -121 59 -32 76 -56
58 -80 -12 -16 -16 -15 -59 18 -34 26 -60 37 -99 42 -29 3 -65 8 -80 11 -20 4
-29 0 -38 -15 -9 -18 -20 -21 -68 -21 -73 0 -129 16 -142 39 -5 10 -22 22 -37
25 -16 4 -39 18 -53 31 -14 13 -36 34 -49 46 -22 21 -23 23 -7 35 16 11 15 13
-9 16 -15 2 -34 12 -42 24 -13 21 -13 21 39 16 29 -2 78 -13 108 -23z m2495
-6 c31 -15 40 -15 68 -4 67 27 74 26 101 -17 30 -48 50 -56 115 -47 39 5 54 2
84 -15 20 -12 58 -28 83 -36 41 -12 54 -12 109 3 60 16 63 16 96 -4 19 -12 61
-26 94 -33 l59 -12 -44 -39 c-80 -68 -100 -74 -215 -60 -54 7 -107 17 -116 22
-28 15 -190 10 -219 -6 -14 -8 -39 -14 -56 -15 -18 0 -58 -12 -90 -27 -81 -37
-147 -37 -195 0 -44 33 -57 34 -100 2 -19 -14 -65 -46 -104 -70 -81 -52 -116
-57 -166 -20 -58 43 -101 58 -179 63 -59 4 -89 12 -142 38 -37 19 -77 34 -89
34 -11 0 -51 -18 -87 -39 -133 -79 -262 -94 -389 -48 -107 39 -161 70 -228
132 l-60 56 75 -7 c44 -3 117 -1 175 7 108 14 112 14 226 3 70 -6 82 -4 135
20 33 15 80 40 105 57 25 16 53 29 63 29 9 0 54 -18 99 -40 122 -58 173 -68
245 -46 31 10 88 32 125 49 l68 31 47 -17 c77 -28 106 -21 186 42 44 35 70 38
121 14z m-2150 -192 c-3 -5 0 -13 6 -17 8 -4 9 -3 5 4 -5 8 1 12 14 12 12 0
18 -4 15 -10 -4 -7 2 -9 18 -5 24 6 87 -17 87 -33 0 -12 -156 -6 -189 8 -30
12 -31 14 -15 31 17 19 70 27 59 10z m2459 -71 c14 -5 26 -6 26 -2 0 16 53 11
92 -8 47 -23 65 -25 70 -9 2 7 19 5 48 -7 25 -9 57 -17 72 -18 14 0 24 -4 21
-8 -7 -13 -61 -9 -100 7 -43 18 -46 18 -37 3 5 -8 1 -9 -12 -5 -18 7 -18 7 0
-8 11 -8 27 -15 35 -15 14 0 14 -1 1 -10 -20 -13 -53 -13 -45 0 8 12 -5 13
-23 1 -11 -7 -10 -9 3 -15 9 -3 13 -11 10 -16 -8 -13 -85 -4 -131 15 -39 16
-116 84 -108 96 7 12 46 11 78 -1z m-1170 -31 c-4 -8 1 -9 17 -5 20 6 21 5 7
-4 -22 -13 -23 -27 -3 -27 8 0 12 4 10 8 -3 3 4 9 15 12 14 4 20 0 20 -11 0
-11 3 -13 8 -6 9 14 56 -1 47 -15 -3 -6 5 -19 17 -31 l22 -20 11 20 11 21 19
-21 c16 -18 16 -20 2 -20 -21 0 -21 -18 -2 -44 8 -10 12 -22 10 -27 -3 -4 0
-11 6 -15 8 -4 9 -3 5 4 -4 7 -2 12 5 12 8 0 8 4 -1 15 -7 8 -9 15 -4 15 4 0
3 5 -3 11 -9 9 -8 16 3 27 13 12 13 16 2 23 -11 7 -11 9 0 9 7 0 10 5 7 10 -5
8 -11 8 -19 1 -13 -11 -26 -5 -26 11 0 10 64 1 103 -14 15 -6 27 -15 27 -20 0
-5 -4 -6 -10 -3 -5 3 -10 -3 -10 -14 0 -15 6 -21 21 -21 11 0 18 -4 15 -9 -3
-5 1 -11 8 -14 8 -3 17 -1 20 6 3 9 7 9 13 1 9 -12 41 -12 61 0 6 4 12 2 12
-3 0 -11 -13 -15 -37 -12 -18 2 -26 -18 -12 -35 6 -8 10 -16 8 -17 -35 -25
-64 -37 -75 -33 -9 3 -13 9 -10 14 2 4 -4 9 -15 9 -10 1 -19 -2 -19 -8 0 -5
-13 -9 -30 -9 -22 0 -30 5 -31 18 0 10 -3 12 -6 5 -2 -7 -21 -13 -41 -13 -59
0 -205 29 -213 42 -4 6 -20 12 -36 13 -15 1 -41 8 -57 14 -16 6 -31 9 -34 6
-3 -2 -13 5 -23 17 -17 19 -19 19 -19 3 0 -13 -5 -16 -22 -11 -24 7 -56 15
-73 19 -5 2 -19 8 -29 14 -18 10 -15 12 25 23 24 7 63 19 86 27 24 8 46 12 51
9 5 -3 19 4 30 15 13 11 22 15 22 8 0 -8 7 -6 18 4 23 21 46 22 38 2 -6 -16 9
-21 19 -5 3 5 12 7 21 3 8 -3 14 -2 13 3 -2 14 0 24 7 24 3 0 2 -5 -2 -11z
m710 -4 c8 -8 19 -15 25 -15 6 0 11 -4 11 -9 0 -5 10 -12 23 -16 20 -6 19 -7
-13 -16 -19 -5 -50 -14 -67 -20 -18 -5 -39 -7 -45 -2 -7 4 -16 8 -20 8 -5 0
-8 3 -8 8 0 4 0 13 0 20 0 11 57 57 72 57 3 0 13 -7 22 -15z m405 -21 c17 -19
54 -46 82 -59 l51 -23 -31 -7 c-17 -3 -36 -3 -42 1 -7 4 -35 9 -63 11 -28 2
-73 11 -101 20 -29 10 -77 16 -112 15 -70 -2 -92 12 -36 23 20 4 55 16 76 27
25 12 48 17 64 13 16 -4 22 -2 18 5 -4 6 7 10 28 10 27 0 42 -8 66 -36z m-969
-24 c0 -5 -5 -10 -11 -10 -5 0 -7 5 -4 10 3 6 8 10 11 10 2 0 4 -4 4 -10z m24
-5 c-4 -8 -8 -15 -10 -15 -2 0 -4 7 -4 15 0 8 4 15 10 15 5 0 7 -7 4 -15z
m797 -46 c35 -11 91 -22 124 -24 33 -2 63 -4 68 -4 4 -1 7 -5 7 -11 0 -12 -87
-38 -158 -45 -87 -9 -306 40 -327 74 -7 12 35 20 120 24 33 2 70 4 81 5 12 1
50 -7 85 -19z m-1716 -4 c-16 -8 -46 -34 -65 -58 -19 -24 -61 -58 -93 -76 -83
-45 -101 -27 -47 47 17 23 30 45 30 48 0 15 -43 -33 -61 -67 -26 -53 -119
-105 -119 -67 0 6 -7 4 -18 -5 -21 -19 -52 -23 -52 -6 0 6 -13 1 -29 -10 -33
-23 -53 -26 -82 -10 -18 9 -14 14 41 56 55 41 142 83 172 83 6 0 -1 -13 -17
-30 -41 -43 -26 -46 21 -4 34 32 144 83 144 67 0 -3 12 3 27 12 24 16 94 31
153 33 24 1 24 1 -5 -13z m1090 5 c3 -6 -4 -10 -17 -10 -18 0 -20 2 -8 10 19
12 18 12 25 0z m1075 -45 c-25 -25 -55 -48 -68 -52 -12 -3 -30 -19 -38 -35 -9
-16 -21 -27 -28 -25 -13 5 -22 -4 -56 -60 -11 -18 -27 -33 -36 -33 -9 0 -27
-9 -41 -19 -13 -11 -30 -18 -37 -15 -6 2 -23 -7 -36 -21 -14 -15 -35 -25 -51
-25 -14 0 -32 -7 -39 -15 -7 -8 -23 -15 -36 -15 -24 0 -32 14 -15 24 5 3 7 14
4 24 -6 23 50 98 97 129 39 27 48 24 27 -9 -17 -26 -41 -108 -34 -115 3 -2 15
25 26 60 17 51 33 75 71 111 27 25 51 46 53 46 3 0 -1 -17 -9 -37 -16 -47 -19
-92 -2 -53 5 14 16 40 24 58 14 33 66 72 96 72 16 0 16 -3 2 -36 -20 -47 -13
-67 10 -29 20 33 123 114 146 115 8 0 -5 -20 -30 -45z m-2485 14 c-22 -6 -55
-14 -72 -18 -19 -5 -33 -5 -33 0 0 9 23 16 75 22 56 7 70 5 30 -4z m394 -9
c-21 -11 -57 -22 -80 -26 -41 -6 -43 -5 -28 11 18 18 66 33 114 34 l30 0 -36
-19z m1138 -12 c-3 -8 -6 -5 -6 6 -1 11 2 17 5 13 3 -3 4 -12 1 -19z m-1670
-14 c3 -8 -17 -14 -55 -19 -59 -7 -107 -25 -68 -25 33 0 10 -11 -61 -30 l-68
-19 41 37 c78 70 84 73 148 70 33 -2 61 -8 63 -14z m1646 -8 c-7 -28 -10 -30
-26 -14 -23 22 -21 29 6 24 12 -1 21 -6 20 -10z m631 -26 c-6 -6 -36 -20 -68
-33 -32 -12 -57 -26 -56 -31 2 -11 -97 -56 -124 -56 -14 0 -23 -6 -23 -15 0
-23 32 -18 100 16 34 17 58 26 52 21 -5 -6 -48 -30 -95 -53 -47 -23 -101 -57
-122 -75 -20 -18 -46 -38 -59 -44 -21 -12 -20 -9 9 42 67 120 123 198 141 198
10 0 24 6 30 14 10 11 28 13 79 9 37 -3 83 -1 102 5 46 14 45 13 34 2z m-2337
-44 c-14 -13 -34 -23 -44 -22 -10 2 -12 1 -5 -1 18 -6 4 -23 -19 -23 -11 0
-17 5 -14 10 4 6 -5 10 -19 10 -14 0 -26 5 -26 10 0 6 12 10 28 10 15 0 36 7
46 15 11 8 33 15 49 15 l30 0 -26 -24z m2193 -143 c-9 -27 -15 -53 -13 -60 5
-13 -30 -22 -112 -28 -32 -3 -67 -7 -77 -11 -10 -3 -18 -1 -18 5 0 6 5 11 11
11 6 0 36 18 68 40 67 47 78 50 54 13 -10 -16 6 -4 34 25 28 28 56 52 61 52 6
0 2 -21 -8 -47z"/>
<path d="M2954 3648 l-29 -31 32 22 c35 23 50 41 35 41 -4 0 -21 -14 -38 -32z"/>
<path d="M2915 3420 c-10 -11 -16 -22 -14 -24 2 -2 12 7 22 20 22 29 17 32 -8
4z"/>
<path d="M2859 3343 c-13 -16 -12 -17 4 -4 16 13 21 21 13 21 -2 0 -10 -8 -17
-17z"/>
<path d="M2795 3220 c-4 -6 -11 -7 -17 -4 -7 4 -8 2 -4 -5 6 -9 11 -9 22 0 14
11 18 19 10 19 -3 0 -8 -5 -11 -10z"/>
<path d="M2599 3053 c-13 -16 -12 -17 4 -4 16 13 21 21 13 21 -2 0 -10 -8 -17
-17z"/>
<path d="M2569 3013 c-13 -16 -12 -17 4 -4 16 13 21 21 13 21 -2 0 -10 -8 -17
-17z"/>
<path d="M1061 3914 c0 -11 3 -14 6 -6 3 7 2 16 -1 19 -3 4 -6 -2 -5 -13z"/>
<path d="M1091 3904 c0 -11 3 -14 6 -6 3 7 2 16 -1 19 -3 4 -6 -2 -5 -13z"/>
<path d="M1047 3841 c-4 -18 -6 -48 -6 -65 1 -21 4 -14 10 23 10 60 6 96 -4
42z"/>
<path d="M1031 3638 c-1 -25 -4 -55 -7 -65 -5 -12 -4 -15 3 -8 15 14 21 66 13
95 -7 20 -8 16 -9 -22z"/>
<path d="M1036 3505 c4 -9 16 -21 28 -27 19 -10 19 -9 -3 16 -28 30 -33 32
-25 11z"/>
<path d="M975 3499 c-4 -6 -5 -12 -2 -15 2 -3 7 2 10 11 7 17 1 20 -8 4z"/>
<path d="M1160 3502 c0 -16 32 -107 42 -117 5 -5 2 10 -7 34 -8 24 -15 52 -15
62 0 10 -4 21 -10 24 -5 3 -10 2 -10 -3z"/>
<path d="M1235 3400 c4 -25 11 -49 15 -53 4 -5 4 13 -1 39 -12 61 -24 73 -14
14z"/>
<path d="M910 3349 c-7 -11 -10 -23 -7 -25 2 -2 9 7 15 21 14 30 7 33 -8 4z"/>
<path d="M1290 3331 c0 -6 4 -13 10 -16 6 -3 7 1 4 9 -7 18 -14 21 -14 7z"/>
<path d="M881 3273 c-14 -52 -20 -198 -6 -175 5 9 10 51 11 93 1 42 5 86 9 97
3 12 4 22 1 22 -3 0 -10 -17 -15 -37z"/>
<path d="M1073 3075 c0 -22 2 -30 4 -17 2 12 2 30 0 40 -3 9 -5 -1 -4 -23z"/>
<path d="M968 3053 c-3 -35 -5 -38 -36 -40 -19 -1 -34 -3 -35 -5 -1 -1 -13
-16 -27 -32 l-25 -30 29 22 c30 23 46 21 46 -6 0 -13 3 -12 15 5 8 11 26 24
40 27 19 5 25 13 25 35 0 65 -27 84 -32 24z"/>
<path d="M1421 3064 c0 -11 3 -14 6 -6 3 7 2 16 -1 19 -3 4 -6 -2 -5 -13z"/>
<path d="M889 2963 c-13 -16 -12 -17 4 -4 9 7 17 15 17 17 0 8 -8 3 -21 -13z"/>
<path d="M5930 3302 c0 -5 7 -15 15 -22 8 -7 15 -8 15 -2 0 5 -7 15 -15 22 -8
7 -15 8 -15 2z"/>
<path d="M5940 3252 c0 -5 7 -15 15 -22 8 -7 15 -9 15 -6 0 4 -7 14 -15 22 -8
9 -15 11 -15 6z"/>
<path d="M5891 2893 c1 -10 4 -29 9 -43 6 -21 8 -22 14 -8 4 9 6 27 4 39 -4
27 -28 38 -27 12z"/>
<path d="M4912 1964 l-37 -36 43 32 c23 17 42 34 42 36 0 10 -13 1 -48 -32z"/>
<path d="M4709 1903 c-13 -16 -12 -17 4 -4 9 7 17 15 17 17 0 8 -8 3 -21 -13z"/>
<path d="M4784 1818 l-19 -23 23 19 c12 11 22 21 22 23 0 8 -8 2 -26 -19z"/>
<path d="M3415 1790 c-4 -17 -5 -34 -2 -36 3 -3 8 9 12 26 4 17 5 34 2 36 -3
3 -8 -9 -12 -26z"/>
<path d="M3413 1685 c-6 -19 -8 -35 -3 -35 8 0 23 60 17 67 -2 1 -8 -13 -14
-32z"/>
<path d="M4220 1690 c-31 -33 -43 -64 -14 -35 47 47 60 49 116 22 64 -32 75
-28 16 6 -73 42 -85 43 -118 7z"/>
<path d="M3710 1676 c-15 -39 -12 -46 6 -13 9 16 13 31 10 34 -3 3 -10 -6 -16
-21z"/>
<path d="M4881 1657 c2 -1 12 -9 22 -16 15 -12 17 -12 11 3 -3 9 -13 16 -22
16 -8 0 -13 -1 -11 -3z"/>
<path d="M3639 1633 c-13 -16 -12 -17 4 -4 16 13 21 21 13 21 -2 0 -10 -8 -17
-17z"/>
<path d="M3381 1602 c-12 -24 -21 -46 -18 -48 8 -8 48 58 45 74 -3 12 -11 3
-27 -26z"/>
<path d="M3595 1620 c-4 -6 -11 -7 -17 -4 -7 4 -8 2 -4 -5 6 -9 11 -9 22 0 14
11 18 19 10 19 -3 0 -8 -5 -11 -10z"/>
<path d="M3325 1289 c-22 -10 -33 -18 -25 -18 8 0 31 8 50 19 45 25 27 24 -25
-1z"/>
<path d="M3042 3240 c-17 -22 -19 -30 -9 -30 18 0 39 24 30 33 -3 4 -1 7 5 7
7 0 12 5 12 10 0 19 -16 10 -38 -20z"/>
<path d="M2945 2579 c-4 -6 -5 -12 -2 -15 2 -3 7 2 10 11 7 17 1 20 -8 4z"/>
<path d="M3540 3243 c0 -21 49 -73 97 -103 68 -43 92 -52 40 -15 -44 31 -43
44 1 21 27 -14 30 -14 28 0 -1 9 -16 23 -32 32 -16 9 -50 29 -77 44 -50 30
-57 32 -57 21z m155 -91 c-3 -3 -11 0 -18 7 -9 10 -8 11 6 5 10 -3 15 -9 12
-12z"/>
<path d="M3800 2706 c0 -2 7 -7 16 -10 8 -3 12 -2 9 4 -6 10 -25 14 -25 6z"/>
<path d="M4245 2670 c3 -5 8 -10 11 -10 2 0 4 5 4 10 0 6 -5 10 -11 10 -5 0
-7 -4 -4 -10z"/>
<path d="M4270 2650 c0 -5 5 -10 11 -10 5 0 7 5 4 10 -3 6 -8 10 -11 10 -2 0
-4 -4 -4 -10z"/>
<path d="M4290 2525 c14 -8 30 -14 35 -14 6 0 -1 6 -15 14 -14 8 -29 14 -35
14 -5 0 1 -6 15 -14z"/>
<path d="M3840 2491 c0 -9 79 -86 82 -80 2 2 -16 23 -39 45 -24 23 -43 39 -43
35z"/>
<path d="M4370 2426 c0 -3 13 -14 29 -25 l29 -21 -5 21 c-3 12 -11 18 -19 15
-8 -3 -14 -1 -14 4 0 6 -4 10 -10 10 -5 0 -10 -2 -10 -4z"/>
<path d="M4445 2390 c4 -6 11 -8 16 -5 14 9 11 15 -7 15 -8 0 -12 -5 -9 -10z"/>
<path d="M4163 2283 c43 -44 167 -141 167 -129 0 4 -139 122 -190 160 -14 11
-3 -3 23 -31z"/>
<path d="M656 2945 c-3 -9 -6 -26 -5 -38 1 -16 4 -12 10 12 10 34 6 55 -5 26z"/>
<path d="M1971 2694 c0 -11 3 -14 6 -6 3 7 2 16 -1 19 -3 4 -6 -2 -5 -13z"/>
<path d="M1946 2672 c-3 -5 1 -9 9 -9 8 0 12 4 9 9 -3 4 -7 8 -9 8 -2 0 -6 -4
-9 -8z"/>
<path d="M1289 2574 c-55 -37 -100 -75 -69 -59 16 9 109 73 125 87 23 20 -7 5
-56 -28z"/>
<path d="M1491 2525 c-67 -42 -72 -48 -34 -35 26 9 106 69 93 69 -3 0 -29 -15
-59 -34z"/>
<path d="M1757 2411 c-36 -37 -40 -63 -6 -38 14 10 55 77 47 77 -2 0 -20 -18
-41 -39z"/>
<path d="M2031 2436 c-9 -10 -8 -15 3 -19 9 -4 18 -1 22 5 5 7 2 8 -6 3 -10
-6 -12 -4 -7 8 8 21 3 22 -12 3z"/>
<path d="M5360 3129 c0 -5 5 -7 10 -4 6 3 10 8 10 11 0 2 -4 4 -10 4 -5 0 -10
-5 -10 -11z"/>
<path d="M5412 3070 c17 -27 33 -48 35 -46 6 5 -43 82 -57 91 -5 3 4 -17 22
-45z"/>
<path d="M5395 3040 c3 -5 8 -10 11 -10 2 0 4 5 4 10 0 6 -5 10 -11 10 -5 0
-7 -4 -4 -10z"/>
<path d="M5331 3026 c-10 -12 -10 -19 3 -38 11 -15 16 -17 16 -8 0 13 2 13 10
0 15 -24 12 9 -4 38 -11 21 -14 21 -25 8z"/>
<path d="M5420 3001 c5 -11 15 -23 21 -27 6 -3 3 5 -6 20 -20 30 -30 35 -15 7z"/>
<path d="M5425 2949 c-4 -6 -5 -12 -2 -15 2 -3 7 2 10 11 7 17 1 20 -8 4z"/>
<path d="M5305 2871 c-3 -11 -27 -39 -53 -62 -39 -35 -41 -39 -14 -23 33 19
89 90 79 100 -3 3 -8 -4 -12 -15z"/>
<path d="M5255 2743 c0 -21 1 -22 13 -6 6 9 12 20 12 23 0 4 -6 7 -12 7 -7 0
-13 -11 -13 -24z"/>
<path d="M5159 2723 c-13 -16 -12 -17 4 -4 9 7 17 15 17 17 0 8 -8 3 -21 -13z"/>
<path d="M5331 2704 c0 -11 3 -14 6 -6 3 7 2 16 -1 19 -3 4 -6 -2 -5 -13z"/>
<path d="M5106 2612 c2 -2 -2 -14 -8 -26 -10 -20 -10 -20 8 -4 12 12 15 21 8
27 -6 5 -9 6 -8 3z"/>
<path d="M2121 2980 c14 -31 19 -36 19 -24 0 6 -7 19 -16 30 -14 18 -14 18 -3
-6z"/>
<path d="M1258 3000 c-3 -32 2 -50 20 -77 13 -19 22 -43 19 -53 -3 -12 2 -20
12 -23 16 -4 16 0 5 37 -6 23 -17 64 -23 91 -16 67 -28 76 -33 25z"/>
<path d="M1232 2960 c0 -19 2 -27 5 -17 2 9 2 25 0 35 -3 9 -5 1 -5 -18z"/>
<path d="M3195 2850 c-16 -16 -25 -33 -21 -37 4 -4 12 1 18 11 6 10 19 27 29
37 11 11 15 19 11 19 -5 0 -21 -13 -37 -30z"/>
<path d="M3332 2840 c7 -11 17 -20 22 -20 5 0 1 9 -9 20 -10 11 -20 20 -22 20
-2 0 2 -9 9 -20z"/>
<path d="M2410 2776 c0 -2 8 -10 18 -17 15 -13 16 -12 3 4 -13 16 -21 21 -21
13z"/>
<path d="M2590 2576 c0 -2 8 -10 18 -17 15 -13 16 -12 3 4 -13 16 -21 21 -21
13z"/>
<path d="M4768 2363 c6 -2 18 -2 25 0 6 3 1 5 -13 5 -14 0 -19 -2 -12 -5z"/>
<path d="M4600 2130 c-9 -6 -10 -10 -3 -10 6 0 15 5 18 10 8 12 4 12 -15 0z"/>
<path d="M4500 2090 c-9 -6 -10 -10 -3 -10 6 0 15 5 18 10 8 12 4 12 -15 0z"/>
<path d="M4480 2055 c-14 -8 -20 -14 -15 -14 6 0 21 6 35 14 14 8 21 14 15 14
-5 0 -21 -6 -35 -14z"/>
<path d="M4596 2522 c12 -11 64 -33 64 -27 0 5 -56 35 -67 35 -4 0 -3 -4 3 -8z"/>
<path d="M2255 2459 c-5 -8 -4 -10 3 -5 7 4 12 3 12 -3 0 -5 13 -12 30 -16 16
-4 32 -11 35 -16 4 -5 15 -14 27 -20 15 -8 19 -8 14 0 -9 15 -2 14 41 -4 65
-27 45 -9 -30 28 -90 44 -122 53 -132 36z"/>
<path d="M2400 2440 c33 -26 52 -25 21 0 -13 11 -28 20 -35 20 -6 0 0 -9 14
-20z"/>
<path d="M2430 2360 c8 -5 24 -10 34 -10 26 0 18 6 -19 14 -22 5 -26 4 -15 -4z"/>
<path d="M2020 2133 c8 -3 24 -10 35 -15 20 -9 20 -9 1 6 -11 9 -27 16 -35 15
-14 0 -14 -1 -1 -6z"/>
<path d="M2515 2070 c3 -5 11 -10 16 -10 6 0 7 5 4 10 -3 6 -11 10 -16 10 -6
0 -7 -4 -4 -10z"/>
<path d="M2570 2030 c14 -10 27 -16 30 -13 6 6 -30 33 -44 33 -6 0 0 -9 14
-20z"/>
<path d="M3046 2037 c3 -10 9 -15 12 -12 3 3 0 11 -7 18 -10 9 -11 8 -5 -6z"/>
<path d="M2084 2014 c3 -18 34 -39 43 -30 4 3 1 6 -6 6 -7 0 -10 4 -6 9 3 6
-3 15 -14 20 -15 9 -19 8 -17 -5z"/>
<path d="M2299 1977 c19 -20 36 -37 38 -37 10 0 -14 29 -40 49 l-32 25 34 -37z"/>
<path d="M3180 1885 c0 -2 14 -13 30 -25 17 -12 30 -17 30 -11 0 5 -13 16 -30
25 -16 8 -30 13 -30 11z"/>
<path d="M2610 1776 c0 -2 8 -10 18 -17 15 -13 16 -12 3 4 -13 16 -21 21 -21
13z"/>
<path d="M2555 1748 c35 -43 100 -102 113 -104 9 -2 8 4 -4 17 -16 18 -16 22
-4 31 13 8 13 9 -1 5 -9 -3 -29 3 -45 14 -16 10 -25 19 -20 19 5 0 1 9 -9 20
-10 11 -25 20 -33 20 -12 0 -12 -4 3 -22z"/>
<path d="M2705 1700 c10 -11 20 -20 23 -20 3 0 -3 9 -13 20 -10 11 -20 20 -23
20 -3 0 3 -9 13 -20z"/>
<path d="M2770 1557 c0 -3 12 -12 26 -22 15 -9 23 -12 20 -6 -7 11 -46 35 -46
28z"/>
<path d="M5906 2463 c-6 -14 -5 -15 5 -6 7 7 10 15 7 18 -3 3 -9 -2 -12 -12z"/>
<path d="M5660 2281 c0 -5 5 -13 10 -16 6 -3 10 -2 10 4 0 5 -4 13 -10 16 -5
3 -10 2 -10 -4z"/>
<path d="M3854 2035 c8 -16 22 -39 31 -50 15 -19 15 -18 1 10 -8 17 -22 39
-31 50 -15 19 -15 18 -1 -10z"/>
<path d="M2855 2350 c10 -11 20 -18 23 -15 7 6 -18 35 -31 35 -5 0 -2 -9 8
-20z"/>
<path d="M5460 1800 c0 -5 5 -10 11 -10 5 0 7 5 4 10 -3 6 -8 10 -11 10 -2 0
-4 -4 -4 -10z"/>
<path d="M4075 1730 c-4 -6 1 -7 11 -3 13 5 15 3 9 -7 -5 -9 -4 -11 3 -6 7 4
12 11 12 17 0 12 -27 12 -35 -1z"/>
<path d="M5655 1651 c-33 -9 -69 -22 -80 -29 -19 -11 -19 -11 5 -11 14 -1 45
8 69 19 24 11 49 20 57 20 8 0 14 5 14 10 0 6 -1 10 -2 9 -2 -1 -30 -9 -63
-18z"/>
<path d="M1995 1670 c10 -11 20 -20 23 -20 3 0 -3 9 -13 20 -10 11 -20 20 -23
20 -3 0 3 -9 13 -20z"/>
<path d="M2160 1632 c0 -12 19 -26 26 -19 2 2 -2 10 -11 17 -9 8 -15 8 -15 2z"/>
<path d="M2045 1620 c3 -5 8 -10 11 -10 2 0 4 5 4 10 0 6 -5 10 -11 10 -5 0
-7 -4 -4 -10z"/>
<path d="M3025 1260 c3 -5 8 -10 11 -10 2 0 4 5 4 10 0 6 -5 10 -11 10 -5 0
-7 -4 -4 -10z"/>
<path d="M5497 1349 c7 -7 15 -10 18 -7 3 3 -2 9 -12 12 -14 6 -15 5 -6 -5z"/>
<path d="M4801 1210 c-1 -14 -12 -43 -26 -65 -33 -54 -33 -76 0 -45 14 13 24
29 21 34 -2 6 2 18 9 26 7 9 9 27 4 45 -6 28 -7 28 -8 5z"/>
<path d="M1242 1160 c0 -14 2 -19 5 -12 2 6 2 18 0 25 -3 6 -5 1 -5 -13z"/>
<path d="M4660 999 c0 -5 5 -7 10 -4 6 3 10 8 10 11 0 2 -4 4 -10 4 -5 0 -10
-5 -10 -11z"/>
<path d="M1863 868 c1 -16 5 -28 9 -28 10 0 9 9 -2 35 -8 17 -8 16 -7 -7z"/>
<path d="M1865 800 c10 -11 20 -20 23 -20 3 0 -3 9 -13 20 -10 11 -20 20 -23
20 -3 0 3 -9 13 -20z"/>
<path d="M1181 936 c7 -8 108 -10 115 -3 4 4 -21 7 -56 7 -35 0 -61 -2 -59 -4z"/>
<path d="M1280 886 c0 -2 7 -7 16 -10 8 -3 12 -2 9 4 -6 10 -25 14 -25 6z"/>
<path d="M2910 870 c0 -5 5 -10 11 -10 5 0 7 5 4 10 -3 6 -8 10 -11 10 -2 0
-4 -4 -4 -10z"/>
<path d="M3997 739 c7 -7 15 -10 18 -7 3 3 -2 9 -12 12 -14 6 -15 5 -6 -5z"/>
<path d="M2620 665 c0 -8 7 -15 15 -15 8 0 15 -7 15 -16 0 -10 -6 -14 -15 -10
-8 3 -15 2 -15 -3 0 -10 42 -23 49 -16 2 3 -1 5 -7 5 -6 0 -9 6 -6 14 6 17
-12 56 -26 56 -6 0 -10 -7 -10 -15z"/>
<path d="M3010 655 c-7 -9 -9 -19 -5 -23 4 -4 10 -1 12 6 3 6 9 10 14 7 5 -4
6 1 3 9 -8 20 -9 20 -24 1z"/>
<path d="M2851 645 c0 -5 4 -17 9 -25 6 -10 10 -11 10 -2 0 21 18 13 22 -10 2
-14 13 -24 31 -29 16 -4 25 -3 21 2 -3 5 -14 9 -25 9 -10 0 -19 5 -19 11 0 5
6 7 13 3 6 -4 3 2 -7 15 -11 12 -25 20 -32 17 -7 -3 -15 0 -18 7 -2 7 -5 8 -5
2z"/>
<path d="M3005 600 c3 -5 11 -10 16 -10 6 0 7 5 4 10 -3 6 -11 10 -16 10 -6 0
-7 -4 -4 -10z"/>
<path d="M3027 549 c7 -7 15 -10 18 -7 3 3 -2 9 -12 12 -14 6 -15 5 -6 -5z"/>
<path d="M3447 711 c6 -23 21 -37 30 -28 3 3 -4 16 -15 28 l-21 21 6 -21z"/>
<path d="M3842 674 c10 -10 20 -16 22 -13 3 3 -5 11 -17 18 -21 13 -21 12 -5
-5z"/>
<path d="M3525 610 c-3 -5 -1 -10 4 -10 6 0 11 5 11 10 0 6 -2 10 -4 10 -3 0
-8 -4 -11 -10z"/>
<path d="M3495 360 c-3 -5 -2 -10 4 -10 5 0 13 5 16 10 3 6 2 10 -4 10 -5 0
-13 -4 -16 -10z"/>
<path d="M550 2719 c0 -4 7 -23 15 -42 8 -20 15 -49 16 -64 0 -27 0 -27 10 -5
7 18 3 34 -16 70 -13 26 -24 44 -25 41z"/>
<path d="M591 2559 c-1 -33 64 -108 143 -164 30 -22 56 -45 56 -51 0 -19 53
-62 140 -113 92 -55 142 -64 190 -35 22 13 22 14 3 9 -12 -3 -24 -1 -28 5 -3
5 -11 10 -18 10 -6 0 -2 -7 9 -15 18 -14 17 -14 -15 -15 -45 0 -103 36 -171
105 -30 31 -86 75 -125 98 -106 61 -135 87 -161 142 -19 42 -23 46 -23 24z"/>
<path d="M930 2526 c0 -2 8 -10 18 -17 15 -13 16 -12 3 4 -13 16 -21 21 -21
13z"/>
<path d="M710 2066 c0 -2 8 -10 18 -17 15 -13 16 -12 3 4 -13 16 -21 21 -21
13z"/>
<path d="M1260 2029 c1 -20 30 -58 30 -38 0 9 8 5 20 -11 11 -14 20 -20 20
-14 0 5 -16 25 -35 44 -21 21 -35 28 -35 19z"/>
<path d="M1340 1996 c0 -1 14 -15 30 -29 17 -15 30 -22 30 -15 0 7 -14 21 -30
30 -17 9 -30 16 -30 14z"/>
<path d="M1015 1854 c-22 -14 -31 -22 -20 -18 11 3 30 9 42 11 12 3 28 11 34
19 19 23 -11 17 -56 -12z"/>
<path d="M1656 1759 c16 -17 23 -29 14 -27 -8 2 -18 7 -22 13 -4 5 -9 7 -12 5
-2 -3 10 -21 27 -40 17 -19 28 -27 25 -19 -4 9 -1 22 5 28 8 8 3 19 -18 41
-16 16 -33 30 -39 30 -5 0 3 -14 20 -31z"/>
<path d="M1710 1700 c0 -5 5 -10 11 -10 5 0 7 5 4 10 -3 6 -8 10 -11 10 -2 0
-4 -4 -4 -10z"/>
</g>
</svg>
